<svg xmlns="http://www.w3.org/2000/svg" viewBox="0 0 179.77 158.86"><defs><style>.cls-1{fill:#efe59a;}</style></defs><title>Asset 3</title><g id="Layer_2" data-name="Layer 2"><g id="Cat"><path d="M60.51,51.69c0-35.18,56.45-73.63,80.18,0C145.19,57,150.1,58.92,153,58s6.18-2.66,11.48.24,6.11-6.92,14.29-6.1c-2.45,6.54,3.27,7.36,0,13.09s3.09,18.11-4.91,22.91c-4.09,2.45-10.63,3.27-16.36,7.36-4.09,0-4.09-4.09-10.64-2.46-3.27,1.64-6.54,11.46-6.54,15.55s-3.27-1.64-4.09,19.63l-.82,21.28s13.09,9-1.64,8.18c0,0-3.27,1.63-4.91-8.18s0-47.46-5.72-34.37c-.82,7.37,0,36,0,36s10.9,5.73,3.81,7.77h-6.77s-4.41-.4-4.41-8.59S110,103.64,110,101.19s4.09-19.64.82-24.55S101,57,96.1,84s-5.73,23.73-8.18,30.28c0,0-4.09,39.27,4.09,36,3.27,3.28-4.91,8.19-8.18,5.73s-3.28,1.64-4.09-7.36-1.64-35.18-1.64-35.18S81.37,97.1,74,110.19v39.27s12.27,11.45-3.27,8.18c-4.91-1.64-4.91-25.36-4.91-25.36V90.55s-7.37-22.09-6.55-27c-6.54,0-27.81-7.36-30.27-23.72S20,9.55,2,9.55c0,0-9.81-12.27,13.91-9C29,3,35.56,25.92,38.83,36.55S47,53.73,56.83,52.1Z"/><path class="cls-1" d="M172.7,72.41c.28,1.46-2.64,3-5.3,3.53s-6.05-.28-6.33-1.74,2.63-3,5.29-3.53S172.41,71,172.7,72.41Z"/><path class="cls-1" d="M155,74.14c-.16,1.48-3.42,2.07-6.13,1.78s-5.72-2.1-5.56-3.58,3.42-2.08,6.14-1.78S155.13,72.65,155,74.14Z"/><ellipse cx="149" cy="73.36" rx="1" ry="2.5"/><ellipse cx="167" cy="73.36" rx="1" ry="2.5"/></g></g></svg>