<svg xmlns="http://www.w3.org/2000/svg" viewBox="0 0 398.4 124.83"><defs><style>.cls-1{fill:#847c96;opacity:0.13;}</style></defs><title>Asset 19</title><g id="Layer_2" data-name="Layer 2"><g id="background"><g id="clouds"><path class="cls-1" d="M-232.73-58.41c-8.85-29.38,37.18-33.9,81.44-11.3,8.85-23.73,69.05,0,67.28,6.78,0-21.47,70.81-24.86,77.89,0,12.4-21.47,63.74,4.52,49.58,9,31.86-11.3,42.48,15.82,24.78,23.73,21.25,0,15.93,12.43,15.93,12.43s19.48-15.82,30.1,9S57.62,33.11,29.29,15C39.91,33.11-27.36,45.54-71.62,27.46c5.31,9-23,23.73-67.27,2.26-10.63,5.65-23,4.52-23,4.52s-15.93,15.82-40.72-4.52c-8.85,7.91-54.88,9-47.8-6.78-15.93,3.39-42.49-28.24-17.7-39.54-19.48-2.26-28.33-39.55,28.32-40.68S-232.73-58.41-232.73-58.41Z" transform="translate(283 84)"/></g></g></g></svg>