<svg xmlns="http://www.w3.org/2000/svg" viewBox="0 0 299.4 121"><defs><style>.cls-1{fill:#9089a0;opacity:0.06;}</style></defs><title>Asset 20</title><g id="Layer_2" data-name="Layer 2"><g id="background"><g id="clouds"><path class="cls-1" d="M-245.22-59.19c-6.65-28.48,27.94-32.86,61.2-11,6.65-23,51.89,0,50.56,6.57,0-20.8,53.22-24.09,58.54,0,9.31-20.8,47.9,4.39,37.25,8.77,24-11,31.93,15.33,18.63,23,16,0,12,12,12,12S7.57-35.1,15.55-11-27,29.52-48.31,12c8,17.52-42.58,29.57-75.84,12.05,4,8.76-17.29,23-50.55,2.19-8,5.47-17.3,4.38-17.3,4.38S-204,46-222.6,26.24c-6.65,7.66-41.24,8.76-35.92-6.58-12,3.29-31.93-27.38-13.31-38.33C-286.46-20.86-293.11-57-250.54-58.1S-245.22-59.19-245.22-59.19Z" transform="translate(283 84)"/></g></g></g></svg>