<svg xmlns="http://www.w3.org/2000/svg" viewBox="0 0 539.4 121"><defs><style>.cls-1{fill:#9089a0;opacity:0.06;}</style></defs><title>Asset 21</title><g id="Layer_2" data-name="Layer 2"><g id="background"><g id="clouds"><path class="cls-1" d="M-214.93-59.19c-12-28.48,50.33-32.86,110.26-11,12-23,93.48,0,91.08,6.57,0-20.8,95.88-24.09,105.47,0,16.78-20.8,86.29,4.39,67.11,8.77,43.15-11,57.53,15.33,33.56,23,28.76,0,21.57,12,21.57,12S240.49-35.1,254.87-11s-76.7,40.52-115,23C154.2,29.52,63.12,41.57,3.19,24.05c7.19,8.76-31.16,23-91.08,2.19C-102.28,31.71-119,30.62-119,30.62S-140.63,46-174.18,26.24c-12,7.66-74.31,8.76-64.72-6.58-21.57,3.29-57.53-27.38-24-38.33C-289.24-20.86-301.22-57-224.52-58.1S-214.93-59.19-214.93-59.19Z" transform="translate(283 84)"/></g></g></g></svg>