<svg xmlns="http://www.w3.org/2000/svg" viewBox="0 0 61.03 92.47"><defs><style>.cls-1{fill:#fff;opacity:0.68;}.cls-2{fill:#808083;}</style></defs><title>Asset 7</title><g id="Layer_2" data-name="Layer 2"><g id="Ghosts"><path class="cls-1" d="M1.71,91.74S38.57,82,1.21,32.39C-4.92,23.5,14.06,35.31,17.8,18.65s9-31.95,25.81.05c0,0-1.43,5.62,13.37,4.32S41.06,46.39,43.88,54.9s-8.16,29.75-32,37.57Z"/><path class="cls-2" d="M25.08,26.3c0,2.22,2.47,2.09,5.53,2.09s7.32-3.45,7.32-5.68-4.27-2.39-7.32-2.39S25.08,24.07,25.08,26.3Z"/><path class="cls-2" d="M31.65,13.15a2.1,2.1,0,0,0,4.19,0c0-1.16-.94-3.89-2.1-3.89S31.65,12,31.65,13.15Z"/><path class="cls-2" d="M22.09,14.34c0,1.49-.69,3.29.3,3.29s3.29-1.8,3.29-3.29-.81-2.69-1.8-2.69S22.09,12.86,22.09,14.34Z"/></g></g></svg>