<svg xmlns="http://www.w3.org/2000/svg" viewBox="0 0 1367 163"><defs><style>.cls-1{fill:#151516;}.cls-2{fill:#2f2e33;}.cls-3{fill:#46454a;}.cls-4{fill:#222223;}.cls-5{fill:#3a3a3e;}.cls-6{fill:#525256;}.cls-7{fill:#1d1d1e;}.cls-8{fill:#2a2a2a;}</style></defs><title>Asset 4</title><g id="Layer_2" data-name="Layer 2"><g id="background"><g id="wall"><path class="cls-1" d="M1020.74,1H1356a11,11,0,0,1,11,11V163a0,0,0,0,1,0,0H1020.74a0,0,0,0,1,0,0V1A0,0,0,0,1,1020.74,1Z"/><path class="cls-2" d="M1295.67,1H1367a0,0,0,0,1,0,0V57.71a5,5,0,0,1-5,5h-66.33a0,0,0,0,1,0,0V1A0,0,0,0,1,1295.67,1Z"/><path class="cls-2" d="M1169.68,103.86h55.86a4,4,0,0,1,4,4V163a0,0,0,0,1,0,0h-69.33a2,2,0,0,1-2-2V115.33A11.47,11.47,0,0,1,1169.68,103.86Z"/><path class="cls-2" d="M1251.09,73h69.33a2,2,0,0,1,2,2v57.71a2,2,0,0,1-2,2h-57.86a11.47,11.47,0,0,1-11.47-11.47V73A0,0,0,0,1,1251.09,73Z"/><path class="cls-2" d="M1031.47,103.86h48.39a11.47,11.47,0,0,1,11.47,11.47V161a2,2,0,0,1-2,2H1025a5,5,0,0,1-5-5V115.33A11.47,11.47,0,0,1,1031.47,103.86Z"/><path class="cls-2" d="M1134,11.29h58.86a1,1,0,0,1,1,1V61.53A11.47,11.47,0,0,1,1182.4,73H1134a11.47,11.47,0,0,1-11.47-11.47V22.76A11.47,11.47,0,0,1,1134,11.29Z"/><path class="cls-3" d="M1328.16,64H1367a0,0,0,0,1,0,0V93.5a0,0,0,0,1,0,0h-38.84a5,5,0,0,1-5-5V69A5,5,0,0,1,1328.16,64Z"/><rect class="cls-3" x="1077.21" y="30.57" width="43.84" height="29.5" rx="5" ry="5"/><path class="cls-3" d="M1271.69,136h33.84a5,5,0,0,1,5,5v20a2,2,0,0,1-2,2h-36.84a5,5,0,0,1-5-5V141a5,5,0,0,1,5-5Z"/><path class="cls-3" d="M1198.87,61.43h25.67a5,5,0,0,1,5,5V89a2,2,0,0,1-2,2h-28.67a5,5,0,0,1-5-5V66.43a5,5,0,0,1,5-5Z"/><rect class="cls-3" x="1020.74" y="73" width="43.84" height="29.5" rx="5" ry="5"/><rect class="cls-4" x="1266.69" y="64" width="55.73" height="7.71" rx="1" ry="1"/><rect class="cls-4" x="1311.27" y="156.57" width="55.73" height="6.43" rx="1" ry="1"/><rect class="cls-4" x="1152.26" y="1" width="55.73" height="9" rx="1" ry="1"/><path class="cls-4" d="M1121.8,82h-54.25c-.41,0-.74-.58-2.22-1.29V64c1.48-.71,1.81-1.29,2.22-1.29h54.25c.41,0,.74.58.74,1.29V80.71C1122.54,81.42,1122.21,82,1121.8,82Z"/><rect class="cls-4" x="1092.07" y="154" width="65.39" height="9" rx="1" ry="1"/><rect class="cls-4" x="1158.21" y="93.57" width="71.33" height="9" rx="1" ry="1"/><path class="cls-5" d="M1325.16,96.14H1367a0,0,0,0,1,0,0v59.14a0,0,0,0,1,0,0h-35.84a8,8,0,0,1-8-8V98.14A2,2,0,0,1,1325.16,96.14Z"/><path class="cls-5" d="M1209.48,1h59.44a0,0,0,0,1,0,0V48.57a0,0,0,0,1,0,0h-51.44a8,8,0,0,1-8-8V1A0,0,0,0,1,1209.48,1Z"/><rect class="cls-5" x="1158.21" y="75.57" width="34.92" height="15.43" rx="2" ry="2"/><path class="cls-5" d="M1100.82,92.29h34.84a1,1,0,0,1,1,1v50.14a8,8,0,0,1-8,8h-27.84a8,8,0,0,1-8-8V100.29A8,8,0,0,1,1100.82,92.29Z"/><path class="cls-5" d="M1124.76,74.29h11.9a.74.74,0,0,1,.74.74v5.5a1.48,1.48,0,0,1-1.48,1.48h-11.17a1.48,1.48,0,0,1-1.48-1.48V75.76a1.48,1.48,0,0,1,1.48-1.48Z"/><path class="cls-5" d="M1020.74,1h43.84a0,0,0,0,1,0,0V50.14a10,10,0,0,1-10,10h-33.84a0,0,0,0,1,0,0V1A0,0,0,0,1,1020.74,1Z"/><rect class="cls-3" x="1311.27" y="136" width="11.15" height="19.29" rx="3.69" ry="3.69"/><rect class="cls-3" x="1250.34" y="49.86" width="15.6" height="21.86" rx="3.92" ry="3.92"/><path class="cls-6" d="M1230.28,49.86h19.32a0,0,0,0,1,0,0v73.43a5,5,0,0,1-5,5h-9.32a5,5,0,0,1-5-5V49.86A0,0,0,0,1,1230.28,49.86Z"/><path class="cls-6" d="M1139.14,75.57h13.32a5,5,0,0,1,5,5v65.86a5,5,0,0,1-5,5h-9.32a5,5,0,0,1-5-5V76.57A1,1,0,0,1,1139.14,75.57Z"/><path class="cls-6" d="M1080.69-13.36h25a1,1,0,0,1,1,1V42.36a0,0,0,0,1,0,0h-22a5,5,0,0,1-5-5V-12.36A1,1,0,0,1,1080.69-13.36Z" transform="translate(1078.69 1107.69) rotate(-90)"/><rect class="cls-6" x="1111.25" y="64.85" width="7.71" height="44.58" rx="1" ry="1" transform="translate(1027.97 1202.25) rotate(-90)"/><path class="cls-6" d="M1289,61.43h-14.86c-2,0-3.72-2.88-3.72-6.43V1h23.78V55C1292.7,58.55,1291,61.43,1289,61.43Z"/><path class="cls-6" d="M1205.81,60.14h-8.36c-1.16,0-2.09-2.26-2.09-5.06V12.57h13.37V55.08C1207.9,57.88,1207,60.14,1205.81,60.14Z"/><path class="cls-6" d="M1263.67,163h-6.5c-.9,0-1.63-1.29-1.63-2.87V136H1266v24.13C1265.3,161.71,1264.57,163,1263.67,163Z"/><path class="cls-6" d="M1020.74,62.71h42.12a1.72,1.72,0,0,1,1.72,1.72V70a1.72,1.72,0,0,1-1.72,1.72h-42.12a0,0,0,0,1,0,0v-9a0,0,0,0,1,0,0Z"/><path class="cls-7" d="M1065.33,83.29h26.75a0,0,0,0,1,0,0v17.29a2,2,0,0,1-2,2h-24.75a0,0,0,0,1,0,0V83.29A0,0,0,0,1,1065.33,83.29Z"/><rect class="cls-8" x="1121.8" y="1" width="29.72" height="9" rx="1.72" ry="1.72"/><path class="cls-4" d="M1230.28,130.86h19.52a5,5,0,0,1,5,5V161a2,2,0,0,1-2,2h-22.52a0,0,0,0,1,0,0V130.86A0,0,0,0,1,1230.28,130.86Z"/><rect class="cls-7" x="1065.33" y="29.29" width="11.15" height="32.14" rx="3.69" ry="3.69"/><rect class="cls-2" x="1209.48" y="49.61" width="20.06" height="10.53" rx="1" ry="1"/></g><g id="wall-2" data-name="wall"><path class="cls-1" d="M1.09,0H499a11,11,0,0,1,11,11V162a0,0,0,0,1,0,0H1.09a0,0,0,0,1,0,0V0A0,0,0,0,1,1.09,0Z"/><path class="cls-2" d="M405.16,0H510a0,0,0,0,1,0,0V56.71a5,5,0,0,1-5,5H405.16a0,0,0,0,1,0,0V0A0,0,0,0,1,405.16,0Z"/><path class="cls-2" d="M214.6,102.86H304a4,4,0,0,1,4,4V162a0,0,0,0,1,0,0H205.13a2,2,0,0,1-2-2V114.33A11.47,11.47,0,0,1,214.6,102.86Z"/><path class="cls-2" d="M339.64,72H442.48a2,2,0,0,1,2,2v57.71a2,2,0,0,1-2,2H351.11a11.47,11.47,0,0,1-11.47-11.47V72A0,0,0,0,1,339.64,72Z"/><path class="cls-2" d="M1.92,160.94A5,5,0,0,1,0,157V114.33a11.47,11.47,0,0,1,11.47-11.47h81.9a11.47,11.47,0,0,1,11.47,11.47V160a2,2,0,0,1-2,2H5a5,5,0,0,1-3.08-1.06"/><path class="cls-2" d="M162.18,10.29h92.37a1,1,0,0,1,1,1V60.53A11.47,11.47,0,0,1,244.07,72h-81.9a11.47,11.47,0,0,1-11.47-11.47V21.76A11.47,11.47,0,0,1,162.18,10.29Z"/><path class="cls-3" d="M450.57,63H510a0,0,0,0,1,0,0V92.5a0,0,0,0,1,0,0H450.57a5,5,0,0,1-5-5V68A5,5,0,0,1,450.57,63Z"/><rect class="cls-3" x="84.09" y="29.57" width="64.43" height="29.5" rx="5" ry="5"/><path class="cls-3" d="M367.57,135H422a5,5,0,0,1,5,5v20a2,2,0,0,1-2,2H367.57a5,5,0,0,1-5-5V140a5,5,0,0,1,5-5Z"/><path class="cls-3" d="M260.55,60.43H303a5,5,0,0,1,5,5V88a2,2,0,0,1-2,2H260.55a5,5,0,0,1-5-5V65.43a5,5,0,0,1,5-5Z"/><rect class="cls-3" x="1.09" y="72" width="64.43" height="29.5" rx="5" ry="5"/><rect class="cls-4" x="362.57" y="63" width="81.91" height="7.71" rx="1" ry="1"/><rect class="cls-4" x="428.09" y="155.57" width="81.91" height="6.43" rx="1" ry="1"/><rect class="cls-4" x="194.39" width="81.91" height="9" rx="1" ry="1"/><path class="cls-4" d="M149.61,81H69.89c-.6,0-1.09-.58-3.27-1.29V63c2.18-.71,2.67-1.29,3.27-1.29h79.72a1.21,1.21,0,0,1,1.1,1.29V79.71A1.21,1.21,0,0,1,149.61,81Z"/><rect class="cls-4" x="105.93" y="153" width="96.1" height="9" rx="1" ry="1"/><rect class="cls-4" x="203.13" y="92.57" width="104.84" height="9" rx="1" ry="1"/><path class="cls-5" d="M447.57,95.14H510a0,0,0,0,1,0,0v59.14a0,0,0,0,1,0,0H453.57a8,8,0,0,1-8-8V97.14A2,2,0,0,1,447.57,95.14Z"/><path class="cls-5" d="M278.48,0h87.37a0,0,0,0,1,0,0V47.57a0,0,0,0,1,0,0H286.48a8,8,0,0,1-8-8V0A0,0,0,0,1,278.48,0Z"/><rect class="cls-5" x="203.13" y="74.57" width="51.33" height="15.43" rx="2" ry="2"/><path class="cls-5" d="M115,91.29h55.43a1,1,0,0,1,1,1v50.14a8,8,0,0,1-8,8H115a8,8,0,0,1-8-8V99.29A8,8,0,0,1,115,91.29Z"/><path class="cls-5" d="M153.27,73.29h18.54a.74.74,0,0,1,.74.74v5.5A1.48,1.48,0,0,1,171.07,81h-17.8a1.48,1.48,0,0,1-1.48-1.48V74.76a1.48,1.48,0,0,1,1.48-1.48Z"/><path class="cls-5" d="M1.09,0H65.52a0,0,0,0,1,0,0V49.14a10,10,0,0,1-10,10H1.09a0,0,0,0,1,0,0V0A0,0,0,0,1,1.09,0Z"/><rect class="cls-3" x="428.09" y="135" width="16.38" height="19.29" rx="3.69" ry="3.69"/><rect class="cls-3" x="338.54" y="48.86" width="22.93" height="21.86" rx="3.92" ry="3.92"/><path class="cls-6" d="M309.06,48.86h28.39a0,0,0,0,1,0,0v73.43a5,5,0,0,1-5,5H314.06a5,5,0,0,1-5-5V48.86A0,0,0,0,1,309.06,48.86Z"/><path class="cls-6" d="M174.64,74.57H197a5,5,0,0,1,5,5v65.86a5,5,0,0,1-5,5H178.64a5,5,0,0,1-5-5V75.57A1,1,0,0,1,174.64,74.57Z"/><path class="cls-6" d="M95.07-27.45h25a1,1,0,0,1,1,1V54.45a0,0,0,0,1,0,0h-22a5,5,0,0,1-5-5V-26.45A1,1,0,0,1,95.07-27.45Z" transform="translate(94.07 121.07) rotate(-90)"/><rect class="cls-6" x="135.93" y="53.38" width="7.71" height="65.52" rx="1" ry="1" transform="translate(53.64 225.93) rotate(-90)"/><path class="cls-6" d="M395.33,60.43H373.49c-3,0-5.46-2.88-5.46-6.43V0h35V54C400.79,57.55,398.35,60.43,395.33,60.43Z"/><path class="cls-6" d="M273.09,59.14H260.8c-1.69,0-3.07-2.26-3.07-5.06V11.57h19.66V54.08C276.16,56.88,274.78,59.14,273.09,59.14Z"/><path class="cls-6" d="M358.13,162h-9.55a2.67,2.67,0,0,1-2.39-2.87V135h15.29v24.13C360.52,160.71,359.45,162,358.13,162Z"/><path class="cls-6" d="M1.09,61.71H63.8a1.72,1.72,0,0,1,1.72,1.72V69a1.72,1.72,0,0,1-1.72,1.72H1.09a0,0,0,0,1,0,0v-9a0,0,0,0,1,0,0Z"/><path class="cls-7" d="M66.62,82.29h39.31a0,0,0,0,1,0,0V99.57a2,2,0,0,1-2,2H66.62a0,0,0,0,1,0,0V82.29A0,0,0,0,1,66.62,82.29Z"/><rect class="cls-8" x="149.61" width="43.68" height="9" rx="1.72" ry="1.72"/><path class="cls-4" d="M309.06,129.86h31a5,5,0,0,1,5,5V160a2,2,0,0,1-2,2h-34a0,0,0,0,1,0,0V129.86A0,0,0,0,1,309.06,129.86Z"/><rect class="cls-7" x="66.62" y="28.29" width="16.38" height="32.14" rx="3.69" ry="3.69"/><rect class="cls-2" x="278.48" y="48.61" width="29.49" height="10.53" rx="1" ry="1"/></g></g></g></svg>