<svg xmlns="http://www.w3.org/2000/svg" viewBox="0 0 189 231.13"><defs><style>.cls-1{fill:#fff;}.cls-2{fill:#ff8b0d;}.cls-3{fill:#49b9db;}</style></defs><title>Asset 5</title><g id="Layer_2" data-name="Layer 2"><g id="icons"><g id="Markers"><circle class="cls-1" cx="94.17" cy="94.5" r="74.5"/><path class="cls-2" d="M94.5,0A94.51,94.51,0,0,0,17.67,149.53v81.6l73-42.13-.15-.09c1.32.06,2.66.09,4,.09a94.5,94.5,0,0,0,0-189Zm0,169A74.5,74.5,0,1,1,169,94.5,74.58,74.58,0,0,1,94.5,169Z"/></g><g id="Aquarium"><path class="cls-2" d="M110.29,97.57c1-7.22,3.28-14.93,7.35-21.25a57.81,57.81,0,0,0-14.77-1.88C82.53,74.44,60,78.88,60,91.26s22.5,28,42.84,28a62.3,62.3,0,0,0,9.93-.86C109.67,112.14,109.37,104.34,110.29,97.57Z"/><path class="cls-2" d="M124.28,77.47c-4.35,6.1-6.7,13.93-7.77,21.12-1,6.64-1,14.77,2.65,20.72,13.64-3.74,23.13-12.08,23.13-21.77C142.29,89.12,135.12,81.71,124.28,77.47Zm4.38,19c-5.21,0-5.2-8.1,0-8.1S133.87,96.48,128.66,96.48Z"/><path class="cls-2" d="M63.55,96.87l-3-9.77c-1-.85-2.11-1.95-2.72-2.55,0,0-.09-.22-.21-.48-1.1-7.13-16-21-17.64-16.64.17,13.21,8.45,25.19,8.45,25.19l2.12-1.5L49,92.48s-5.28,7.47,0,17.15c0,4.4-2.2,5.72-2.2,5.72S60.79,108,61,96.87Z"/><path class="cls-2" d="M98.73,121.94c-.58-.92,7.66,1.32,13.5-1S101.37,143.26,98.73,121.94Z"/><path class="cls-2" d="M80.26,74.44s32.11-4.83,37.38,0C117.64,67.85,75.86,55.09,80.26,74.44Z"/><circle class="cls-3" cx="149.77" cy="69.76" r="3.92"/><circle class="cls-3" cx="155.83" cy="81.52" r="2.14"/><circle class="cls-3" cx="147.28" cy="88.65" r="1.43"/></g></g></g></svg>