<svg xmlns="http://www.w3.org/2000/svg" viewBox="0 0 165 161"><defs><style>.cls-1{fill:#05668d;}.cls-2{fill:#fff;}.cls-3{fill:none;stroke:#fff;stroke-miterlimit:10;}</style></defs><title>Asset 1</title><g id="Layer_2" data-name="Layer 2"><g id="Help_Page" data-name="Help Page"><g id="arrows"><rect class="cls-1" x="56.5" y="0.5" width="51" height="49" rx="3.5" ry="3.5"/><path class="cls-2" d="M104,1a3,3,0,0,1,3,3V46a3,3,0,0,1-3,3H60a3,3,0,0,1-3-3V4a3,3,0,0,1,3-3h44m0-1H60a4,4,0,0,0-4,4V46a4,4,0,0,0,4,4h44a4,4,0,0,0,4-4V4a4,4,0,0,0-4-4Z"/><rect class="cls-1" x="113.5" y="56.5" width="51" height="49" rx="3.5" ry="3.5"/><path class="cls-2" d="M161,57a3,3,0,0,1,3,3v42a3,3,0,0,1-3,3H117a3,3,0,0,1-3-3V60a3,3,0,0,1,3-3h44m0-1H117a4,4,0,0,0-4,4v42a4,4,0,0,0,4,4h44a4,4,0,0,0,4-4V60a4,4,0,0,0-4-4Z"/><rect class="cls-1" x="0.5" y="56.5" width="51" height="49" rx="3.5" ry="3.5"/><path class="cls-2" d="M48,57a3,3,0,0,1,3,3v42a3,3,0,0,1-3,3H4a3,3,0,0,1-3-3V60a3,3,0,0,1,3-3H48m0-1H4a4,4,0,0,0-4,4v42a4,4,0,0,0,4,4H48a4,4,0,0,0,4-4V60a4,4,0,0,0-4-4Z"/><rect class="cls-1" x="57.5" y="111.5" width="51" height="49" rx="3.5" ry="3.5"/><path class="cls-2" d="M105,112a3,3,0,0,1,3,3v42a3,3,0,0,1-3,3H61a3,3,0,0,1-3-3V115a3,3,0,0,1,3-3h44m0-1H61a4,4,0,0,0-4,4v42a4,4,0,0,0,4,4h44a4,4,0,0,0,4-4V115a4,4,0,0,0-4-4Z"/><polygon class="cls-2" points="77.3 18.5 82.5 9.5 87.7 18.5 77.3 18.5"/><path class="cls-2" d="M82.5,10.5,86.83,18H78.17l4.33-7.5m0-2L76.44,19H88.56L82.5,8.5Z"/><polygon class="cls-2" points="77.3 140 87.7 140 82.5 149 77.3 140"/><path class="cls-2" d="M86.83,140.5,82.5,148l-4.33-7.5h8.66m1.73-1H76.44L82.5,150l6.06-10.5Z"/><polygon class="cls-2" points="10.25 79.75 19.25 74.55 19.25 84.95 10.25 79.75"/><path class="cls-2" d="M18.75,75.42v8.66l-7.5-4.33,7.5-4.33m1-1.73L9.25,79.75l10.5,6.06V73.69Z"/><polygon class="cls-2" points="146.75 74.55 155.75 79.75 146.75 84.95 146.75 74.55"/><path class="cls-2" d="M147.25,75.42l7.5,4.33-7.5,4.33V75.42m-1-1.73V85.81l10.5-6.06-10.5-6.06Z"/><line class="cls-3" x1="82.5" y1="18.5" x2="82.5" y2="37.5"/><line class="cls-3" x1="128" y1="80.5" x2="147" y2="80.5"/><line class="cls-3" x1="19" y1="80.5" x2="38" y2="80.5"/><line class="cls-3" x1="82.5" y1="121" x2="82.5" y2="140"/></g></g></g></svg>