<svg xmlns="http://www.w3.org/2000/svg" viewBox="0 0 189 231.13"><defs><style>.cls-1{fill:#fff;}.cls-2{fill:#7317af;}.cls-3{fill:#05668d;}.cls-4{fill:#ebf2fa;}.cls-5{fill:#679436;}.cls-6{opacity:0.49;}.cls-7{fill:none;stroke:#679436;stroke-miterlimit:10;stroke-width:0.08px;}</style></defs><title>Asset 8</title><g id="Layer_2" data-name="Layer 2"><g id="icons"><g id="Markers"><g id="Purple"><circle class="cls-1" cx="94.17" cy="94.5" r="74.5"/><path class="cls-2" d="M94.5,0A94.51,94.51,0,0,0,17.67,149.53v81.6l73-42.13-.15-.09c1.32.06,2.66.09,4,.09a94.5,94.5,0,0,0,0-189Zm0,169A74.5,74.5,0,1,1,169,94.5,74.58,74.58,0,0,1,94.5,169Z"/></g></g><path class="cls-3" d="M139.73,124.91,113.09,127a4.22,4.22,0,0,0-1.27.31L50.44,48,46.2,51.28l63.57,82.13a4.24,4.24,0,0,0,2.67,2c7.46,1.83,16.7,2.7,28.06,2.45a4.25,4.25,0,0,0,4.15-4.59l-.35-4.43A4.26,4.26,0,0,0,139.73,124.91Z"/><path class="cls-4" d="M140.53,137.85a150.52,150.52,0,0,1-24.74-1.49l-1-9.48L138.62,125Z"/><path class="cls-5" d="M50.67,124l26.58,2.64a4.17,4.17,0,0,1,1.27.33l63-78.05,4.17,3.36L80.45,133.11A4.3,4.3,0,0,1,77.74,135c-7.5,1.67-16.76,2.36-28.1,1.88a4.27,4.27,0,0,1-4.07-4.68l.44-4.42A4.25,4.25,0,0,1,50.67,124Z"/><path class="cls-4" d="M71.65,126.09l3.93.39-.89,9.16a107.45,107.45,0,0,1-25.09,1.29l2.17-12.82,19.79,2Z"/><ellipse class="cls-6" cx="95.45" cy="134.97" rx="7.03" ry="1"/><path d="M102.48,135c.34,3.69-.67,3.69-.67,3.69,0,.79-10.71,1-12.39,0-1.43-.86-1-3.69-1-3.69C91.1,136.31,100.81,136.31,102.48,135Z"/><line class="cls-7" x1="52.93" y1="124.26" x2="52.59" y2="136.98"/><polyline class="cls-5" points="55.51 137.06 57.32 124.65 57.4 124.67 55.59 137.07"/><polyline class="cls-5" points="60.85 137 58.63 124.8 58.72 124.81 60.93 137"/><polyline class="cls-5" points="64.59 136.82 61.6 125.09 61.69 125.1 64.68 136.82"/><polyline class="cls-5" points="66.78 136.68 66.13 125.54 66.21 125.55 66.87 136.67"/><polyline class="cls-5" points="70.89 136.23 68.22 125.75 68.13 125.74 70.8 136.24"/><polyline class="cls-5" points="71.56 126.08 74.03 135.76 74.11 135.75 71.65 126.09"/><line class="cls-3" x1="138.06" y1="124.93" x2="138.4" y2="137.65"/><polygon class="cls-3" points="138.36 137.65 138.02 124.93 138.1 124.93 138.44 137.65 138.36 137.65"/><polyline class="cls-3" points="135.48 137.74 133.67 125.32 133.59 125.33 135.4 137.74"/><polyline class="cls-3" points="130.14 137.67 132.36 125.47 132.27 125.47 130.06 137.67"/><polyline class="cls-3" points="126.4 137.49 129.39 125.76 129.3 125.77 126.31 137.49"/><polyline class="cls-3" points="124.21 137.35 124.87 126.21 124.78 126.22 124.12 137.34"/><polyline class="cls-3" points="120.1 136.9 122.77 126.42 122.86 126.41 120.19 136.91"/><polyline class="cls-3" points="119.43 126.75 116.96 136.43 116.88 136.42 119.34 126.76"/></g></g></svg>