<svg xmlns="http://www.w3.org/2000/svg" viewBox="0 0 189 231.13"><defs><style>.cls-1{fill:#ef402e;}.cls-2{fill:#fff;}.cls-3,.cls-4,.cls-5{fill:none;stroke-miterlimit:10;}.cls-3,.cls-4{stroke:#000;}.cls-3{stroke-width:1.86px;}.cls-4{stroke-width:1.24px;}.cls-5{stroke:#9e8159;stroke-width:2.51px;}.cls-6{fill:#513c24;}.cls-7{fill:#679436;}</style></defs><title>Asset 3</title><g id="Layer_2" data-name="Layer 2"><g id="icons"><g id="Markers"><g id="Red"><path class="cls-1" d="M94.5,0A94.51,94.51,0,0,0,17.67,149.53v81.6l73-42.13-.15-.09c1.32.06,2.66.09,4,.09a94.5,94.5,0,0,0,0-189Zm0,169A74.5,74.5,0,1,1,169,94.5,74.58,74.58,0,0,1,94.5,169Z"/><circle class="cls-2" cx="95.17" cy="94.5" r="74.5"/></g></g><g id="Cap_Bridge" data-name="Cap Bridge"><g id="Cap_bridge-2" data-name="Cap bridge"><path class="cls-3" d="M47.49,92.84q45.37,28.84,90.74,0"/><line class="cls-4" x1="62.34" y1="100.57" x2="58.99" y2="113.96"/><line class="cls-4" x1="70.07" y1="103.71" x2="66.73" y2="117.09"/><line class="cls-4" x1="77.6" y1="105.8" x2="74.67" y2="119.6"/><line class="cls-4" x1="85.54" y1="107.06" x2="83.03" y2="121.27"/><line class="cls-4" x1="55.85" y1="97.44" x2="52.51" y2="110.4"/><line class="cls-4" x1="92.65" y1="107.47" x2="92.65" y2="121.69"/><line class="cls-4" x1="100.18" y1="107.06" x2="101.85" y2="121.27"/><line class="cls-4" x1="106.87" y1="105.8" x2="110.63" y2="119.6"/><line class="cls-4" x1="113.14" y1="104.55" x2="118.16" y2="117.51"/><line class="cls-4" x1="119.83" y1="102.04" x2="126.11" y2="114.16"/><line class="cls-4" x1="127.36" y1="99.11" x2="133.21" y2="110.4"/><line class="cls-4" x1="132.8" y1="96.18" x2="138.23" y2="107.47"/><line class="cls-4" x1="51.67" y1="95.35" x2="47.49" y2="107.47"/><path class="cls-5" d="M47.49,107.47q45.37,28.86,90.74,0"/></g><rect class="cls-6" x="138.44" y="70.26" width="5.44" height="67.74"/><rect class="cls-6" x="44.77" y="69.84" width="5.44" height="67.74"/><polygon class="cls-7" points="65.45 92.84 58.45 80.71 63.78 80.71 55.59 68.17 61.27 68.17 47.37 47 33.48 68.17 39.15 68.17 30.97 80.71 36.23 80.71 29.23 92.84 65.45 92.84"/><polygon class="cls-7" points="159.12 92.84 152.12 80.71 157.45 80.71 149.26 68.17 154.94 68.17 141.04 47 127.15 68.17 132.82 68.17 124.64 80.71 129.91 80.71 122.9 92.84 159.12 92.84"/></g></g></g></svg>