<svg xmlns="http://www.w3.org/2000/svg" viewBox="0 0 189 243.88"><defs><style>.cls-1{fill:#ef402e;}.cls-2{fill:#fff;}.cls-3,.cls-4{fill:#7e71cc;}.cls-3{stroke:#231f20;stroke-miterlimit:10;}.cls-5{fill:#231f20;}</style></defs><title>Asset 6</title><g id="Layer_2" data-name="Layer 2"><g id="icons"><g id="Markers"><g id="Red"><path class="cls-1" d="M163.61,213.83a94.5,94.5,0,0,0-57-158.17L47,0,28,82.11l.17-.06c-1,.94-1.88,1.89-2.8,2.87A94.5,94.5,0,0,0,163.61,213.83ZM40,98.56a74.5,74.5,0,1,1,3.67,105.3A74.58,74.58,0,0,1,40,98.56Z"/><circle class="cls-2" cx="94.11" cy="148.57" r="74.5"/></g></g><polyline class="cls-3" points="143.01 198.68 94.76 81.03 45.01 198.68"/><line class="cls-4" x1="45.01" y1="198.68" x2="143.01" y2="198.68"/><polygon class="cls-2" points="79 130.9 72.2 135.65 94.45 81.23 116.55 135.5 110.6 130.87 103.73 136.41 95.6 130.91 86.91 136.44 79 130.9"/><path class="cls-5" d="M94.45,82.55,115.39,134l-4.17-3.23-.62-.49-.62.5-6.27,5.06-7.56-5.11-.54-.37-.55.35-8.13,5.18-7.36-5.15-.57-.41-.58.41-5.12,3.58L94.45,82.55m0-2.65L71.09,137,79,131.51,86.9,137l8.69-5.53,8.17,5.53,6.85-5.53,7.11,5.53L94.45,79.9Z"/></g></g></svg>