<svg xmlns="http://www.w3.org/2000/svg" viewBox="0 0 200 129.18"><defs><style>.cls-1{fill:#575959;}.cls-2{fill:#888989;}</style></defs><title>Asset 2</title><g id="Layer_2" data-name="Layer 2"><g id="Help_Page" data-name="Help Page"><g id="arrow_keys" data-name="arrow keys"><rect class="cls-1" x="67" y="8.18" width="66" height="62" rx="5" ry="5"/><rect class="cls-2" x="65" width="60" height="56.36" rx="5" ry="5"/><rect class="cls-1" x="68" y="67.18" width="66" height="62" rx="5" ry="5"/><rect class="cls-1" x="1" y="67.18" width="66" height="62" rx="5" ry="5"/><rect class="cls-1" x="134" y="67.18" width="66" height="62" rx="5" ry="5"/><rect class="cls-2" y="61" width="60" height="56.36" rx="5" ry="5"/><rect class="cls-2" x="66" y="61" width="60" height="56.36" rx="5" ry="5"/><rect class="cls-2" x="132" y="61" width="60" height="56.36" rx="5" ry="5"/><polygon class="cls-1" points="95 16.18 90 31.18 100 31.18 95 16.18"/><polygon class="cls-1" points="18.5 89.68 33.5 94.68 33.5 84.68 18.5 89.68"/><polygon class="cls-1" points="169 89.68 154 84.68 154 94.68 169 89.68"/><polygon class="cls-1" points="96 98.18 91 83.18 101 83.18 96 98.18"/></g></g></g></svg>