<svg xmlns="http://www.w3.org/2000/svg" viewBox="0 0 189 231.13"><defs><style>.cls-1{fill:#fff;}.cls-2{fill:#7317af;}</style></defs><title>Asset 10</title><g id="Layer_2" data-name="Layer 2"><g id="icons"><g id="Markers"><g id="Purple"><circle class="cls-1" cx="94.17" cy="94.5" r="74.5"/><path class="cls-2" d="M-188.5-84A94.5,94.5,0,0,0-283,10.5a94.08,94.08,0,0,0,17.67,55v81.6l73-42.13-.15-.09c1.32.06,2.66.09,4,.09A94.5,94.5,0,0,0-94,10.5,94.5,94.5,0,0,0-188.5-84Zm0,169A74.58,74.58,0,0,1-263,10.5,74.58,74.58,0,0,1-188.5-64,74.58,74.58,0,0,1-114,10.5,74.58,74.58,0,0,1-188.5,85Z" transform="translate(283 84)"/></g></g><g id="Rio_Theatre" data-name="Rio Theatre"><rect x="41.85" y="86.02" width="73.96" height="57.19" rx="28.59" ry="28.59"/><path d="M-226.22-43a20.21,20.21,0,0,0-20.21,20.21A20.21,20.21,0,0,0-226.22-2.58,20.21,20.21,0,0,0-206-22.79,20.21,20.21,0,0,0-226.22-43Zm0,32.38a12.18,12.18,0,0,1-12.17-12.17A12.18,12.18,0,0,1-226.22-35,12.18,12.18,0,0,1-214-22.79,12.18,12.18,0,0,1-226.22-10.62Z" transform="translate(283 84)"/><path d="M-182.35-43a20.21,20.21,0,0,0-20.21,20.21A20.21,20.21,0,0,0-182.35-2.58a20.21,20.21,0,0,0,20.21-20.21A20.21,20.21,0,0,0-182.35-43Zm0,32.38a12.19,12.19,0,0,1-12.18-12.17A12.19,12.19,0,0,1-182.35-35a12.18,12.18,0,0,1,12.17,12.17A12.18,12.18,0,0,1-182.35-10.62Z" transform="translate(283 84)"/><rect x="117.87" y="97.27" width="11.02" height="32.61" rx="5.51" ry="5.51"/><polygon points="152.09 137.69 130.5 129.66 130.28 98.19 152.32 89.92 152.09 137.69"/></g></g></g></svg>