<svg xmlns="http://www.w3.org/2000/svg" viewBox="0 0 189 231.13"><defs><style>.cls-1{fill:#fff;}.cls-2{fill:#ff8b0d;}.cls-3{fill:#ebf2fa;}.cls-4{fill:#d9e4ec;}.cls-5{fill:#b5cbda;}.cls-6{fill:#93b3c9;}</style></defs><title>Asset 6</title><g id="Layer_2" data-name="Layer 2"><g id="icons"><g id="Markers"><circle class="cls-1" cx="94.17" cy="94.5" r="74.5"/><path class="cls-2" d="M-188.5-84A94.5,94.5,0,0,0-283,10.5a94.08,94.08,0,0,0,17.67,55v81.6l73-42.13-.15-.09c1.32.06,2.66.09,4,.09A94.5,94.5,0,0,0-94,10.5,94.5,94.5,0,0,0-188.5-84Zm0,169A74.58,74.58,0,0,1-263,10.5,74.58,74.58,0,0,1-188.5-64,74.58,74.58,0,0,1-114,10.5,74.58,74.58,0,0,1-188.5,85Z" transform="translate(283 84)"/></g><g id="Science_World" data-name="Science World"><g id="Science_world-2" data-name="Science world"><polygon points="119.94 146 68.11 146 94.03 101.11 119.94 146"/><circle class="cls-3" cx="94.75" cy="87.24" r="47.08"/><path class="cls-4" d="M-160.14,40.83c-4.55,3.38-15.47,9.73-22.63,8.76l11.68-19.71Z" transform="translate(283 84)"/><polygon class="cls-5" points="111.91 113.88 100.23 133.59 87.82 113.88 111.91 113.88"/><polyline class="cls-4" points="74.68 129.94 87.82 113.88 62.27 113.88 74.68 129.94"/><polyline class="cls-6" points="58.62 117.53 62.04 113.88 55.7 113.88 58.62 117.53"/><path class="cls-6" d="M-182.77,49.59c-6.66,1.51-20.83-.39-25.55-3.65l13.14-16.06Z" transform="translate(283 84)"/><path class="cls-5" d="M-208.32,45.94a51.53,51.53,0,0,1-16.06-12.41l3.62-3.8Z" transform="translate(283 84)"/><path class="cls-5" d="M-220.73,29.88-233.87,8l-.73,1.46c.19,6.34,3.38,14.37,7.3,20.43Z" transform="translate(283 84)"/><path class="cls-6" d="M-149.2,29.88a47.84,47.84,0,0,1-10.94,11l-11-10.95Z" transform="translate(283 84)"/><polygon class="cls-4" points="62.27 113.88 49.13 91.98 73.95 91.98 62.27 113.88"/><path class="cls-4" d="M-146.28,24-156.49,8h15.32A45.88,45.88,0,0,1-146.28,24Z" transform="translate(283 84)"/><polygon class="cls-6" points="87.82 113.88 62.27 113.88 73.95 91.98 87.82 113.88"/><polygon class="cls-5" points="87.82 113.88 73.84 91.75 100.23 91.98 87.82 113.88"/><polygon class="cls-6" points="111.91 113.88 100.11 91.98 126.51 91.98 111.91 113.88"/><polygon class="cls-4" points="111.91 113.88 87.73 113.87 100.23 91.98 111.91 113.88"/><path class="cls-5" d="M-171.09,29.88-156.49,8l10.6,15.82c-.91,1.93-2.05,4-3.31,6.07" transform="translate(283 84)"/><polygon class="cls-6" points="73.95 91.98 49.13 91.98 61.54 70.82 73.95 91.98"/><path class="cls-6" d="M-141.17,8h-15.32l12.4-21.17C-141.67-5.22-140.49,2-141.17,8Z" transform="translate(283 84)"/><polygon class="cls-4" points="100.23 91.98 73.95 91.98 86.36 70.82 100.23 91.98"/><polygon class="cls-5" points="126.51 91.98 100.23 91.98 112.64 70.82 126.51 91.98"/><polygon class="cls-5" points="86.36 70.82 73.95 91.98 61.54 70.82 86.36 70.82"/><path class="cls-4" d="M-232.41-13.18h10.95L-233.87,8h-1.22A57.7,57.7,0,0,1-232.41-13.18Z" transform="translate(283 84)"/><polygon class="cls-6" points="112.64 70.82 100.23 91.98 86.36 70.82 112.64 70.82"/><polygon class="cls-4" points="138.91 70.82 126.51 91.98 112.64 70.82 138.91 70.82"/><path class="cls-6" d="M-227.3-22.67c-1.54,1.79-3.28,5.29-5.11,9.49h10.95Z" transform="translate(283 84)"/><polygon class="cls-4" points="73.95 49.65 61.7 70.82 86.36 70.82 73.95 49.65"/><polygon class="cls-5" points="100.23 49.65 86.52 70.82 112.64 70.82 100.23 49.65"/><path class="cls-5" d="M-157.22-32.16l-13,19h26.12C-146.38-19.91-150.89-26.22-157.22-32.16Z" transform="translate(283 84)"/><path class="cls-5" d="M-221.46-13.18-209-34.35h-7.54c-4.44,3.51-8.28,7.28-10.71,11.68Z" transform="translate(283 84)"/><polygon class="cls-6" points="100.23 49.65 86.36 70.82 73.95 49.65 100.23 49.65"/><path class="cls-6" d="M-176.93-42.38l-5.84,8,23.36.73C-163.24-37.52-169.48-40.25-176.93-42.38Z" transform="translate(283 84)"/><polygon class="cls-4" points="112.64 70.82 100.23 49.65 123.63 50.05 125.78 51.84 112.64 70.82"/><path class="cls-4" d="M-209-34.35h-7.3A22.71,22.71,0,0,1-212-37.27Z" transform="translate(283 84)"/><path class="cls-6" d="M-200.29-42.38l-8.76,8L-212-37.27A43.61,43.61,0,0,1-200.29-42.38Z" transform="translate(283 84)"/><path class="cls-4" d="M-176.93-42.38l-5.84,8-6.57-9.49A43.19,43.19,0,0,1-176.93-42.38Z" transform="translate(283 84)"/><path class="cls-5" d="M-209-34.35h26.28l-6.08-9.49a54.91,54.91,0,0,0-11.44,1.46Z" transform="translate(283 84)"/></g><circle class="cls-1" cx="61.54" cy="70.82" r="1.46"/><circle class="cls-1" cx="86.36" cy="70.82" r="1.46"/><circle class="cls-1" cx="112.64" cy="70.82" r="1.46"/><circle class="cls-1" cx="100.23" cy="50.38" r="1.46"/><circle class="cls-1" cx="73.95" cy="50.38" r="1.46"/><circle class="cls-1" cx="73.95" cy="91.99" r="1.46"/><circle class="cls-1" cx="87.82" cy="113.88" r="1.46"/><circle class="cls-1" cx="100.23" cy="91.99" r="1.46"/><circle class="cls-1" cx="126.51" cy="91.99" r="1.46"/><circle class="cls-1" cx="111.91" cy="113.88" r="1.46"/><circle class="cls-1" cx="62.27" cy="113.88" r="1.46"/><circle class="cls-1" cx="49.86" cy="91.99" r="1.46"/></g></g></g></svg>