<svg xmlns="http://www.w3.org/2000/svg" viewBox="0 0 189 231.13"><defs><style>.cls-1{fill:#ef402e;}.cls-2{fill:#fff;}.cls-3{fill:#ea1f1f;}</style></defs><title>Asset 1</title><g id="Layer_2" data-name="Layer 2"><g id="icons"><g id="Markers"><g id="Red"><path class="cls-1" d="M94.5,0A94.51,94.51,0,0,0,17.67,149.53v81.6l73-42.13-.15-.09c1.32.06,2.66.09,4,.09a94.5,94.5,0,0,0,0-189Zm0,169A74.5,74.5,0,1,1,169,94.5,74.58,74.58,0,0,1,94.5,169Z"/><circle class="cls-2" cx="95.17" cy="94.5" r="74.5"/></g></g><g id="Bike_seawall" data-name="Bike seawall"><path d="M57.51,80A22.5,22.5,0,1,0,80,102.5,22.49,22.49,0,0,0,57.51,80Zm0,41.8a19.31,19.31,0,1,1,19.3-19.31A19.33,19.33,0,0,1,57.51,121.81Z"/><circle cx="57.51" cy="102.5" r="3.35"/><path d="M132.18,80a22.5,22.5,0,1,0,22.49,22.49A22.49,22.49,0,0,0,132.18,80Zm0,41.8a19.31,19.31,0,1,1,19.3-19.31A19.33,19.33,0,0,1,132.18,121.81Z"/><circle cx="132.18" cy="102.5" r="3.35"/><path class="cls-3" d="M81.92,76.5l13.72,24.89L124,65.33Zm4.77,2,28.93-7.67L96.11,95.63Z"/><path class="cls-3" d="M80,76.5,57.67,102.34l35.75-.75Zm-.62,5.6,8.78,16.41L64.77,99Z"/><polygon class="cls-3" points="133.48 101.44 130.43 103.31 122.96 69.34 125.64 65.97 133.48 101.44"/><rect x="72.03" y="68.84" width="14.68" height="4.15" rx="2.07" ry="2.07"/><polygon class="cls-3" points="124.1 63.71 120.58 64.69 124.21 56.54 127.37 55.95 124.1 63.71"/><rect x="114.59" y="53.05" width="12.71" height="3.87" rx="1.93" ry="1.93" transform="translate(16.57 -27.22) rotate(13.77)"/></g></g></g></svg>