<svg xmlns="http://www.w3.org/2000/svg" viewBox="0 0 189 231.13"><defs><style>.cls-1{fill:#fff;}.cls-2{fill:#f9de3d;}</style></defs><title>Asset 7</title><g id="Layer_2" data-name="Layer 2"><g id="icons"><g id="Markers"><g id="Yellow"><circle class="cls-1" cx="94.17" cy="94.5" r="74.5"/><path class="cls-2" d="M94.5,0A94.51,94.51,0,0,0,17.67,149.53v81.6l73-42.13-.15-.09c1.32.06,2.66.09,4,.09a94.5,94.5,0,0,0,0-189Zm0,169A74.5,74.5,0,1,1,169,94.5,74.58,74.58,0,0,1,94.5,169Z"/></g></g><path id="StormCrow" d="M132.61,51.35l13.06-1.09s0-1.63-13.61-5.44c-6-2.18-3.26-2.18-10.34-3.81-7.08,0-13.07,9.25-13.07,9.25S103.21,61.7,95,65.51s-33.2,32.66-33.2,32.66S29.17,131.38,33,131.92s12-3.26,17.42-8.16c3.27-2.18-3.81,5.44-2.72,6.53s7.62-.54,12.52-4.36,16.33-5.44,16.33-5.44H82S90.69,125.93,94.5,133c1.09,2.18-8.17,2.18-8.17,2.18s-3.81,2.18,2.73,1.09c1.63,1.09,2.17,1.63,3.81,1.63H101l3.81,1.09s4.9,0,7.08-2.18c1.63,1.64,3.81,2.18,6.53,1.64s4.9-1.64,6.54-.55-2.18-3.81-2.18-3.81-4.9,2.18-11.43-.54c-2.18-4.9-5.45-3.81-6-13.61,0-4.9,3.26-10.89,3.26-10.89s12.53-22.87,13.07-25,4.9-10.35,5.44-15.79,4.9-12,7.63-12,8.71-.54,9.79-1.63S132.61,51.35,132.61,51.35Zm-24.5,83.84c0,1.09-7.08,0-8.71-2.18s-4.36-9.8-4.36-9.8S106.48,130.83,108.11,135.19Zm13.34-84.93a1.91,1.91,0,1,1,1.9-1.9A1.91,1.91,0,0,1,121.45,50.26Z"/></g></g></svg>