<svg xmlns="http://www.w3.org/2000/svg" viewBox="0 0 189 231.13"><defs><style>.cls-1,.cls-3{fill:#fff;}.cls-2{fill:#7317af;}.cls-3{stroke:#000;stroke-miterlimit:10;}</style></defs><title>Asset 9</title><g id="Layer_2" data-name="Layer 2"><g id="icons"><g id="Markers"><g id="Purple"><circle class="cls-1" cx="94.17" cy="94.5" r="74.5"/><path class="cls-2" d="M94.5,0A94.51,94.51,0,0,0,17.67,149.53v81.6l73-42.13-.15-.09c1.32.06,2.66.09,4,.09a94.5,94.5,0,0,0,0-189Zm0,169A74.5,74.5,0,1,1,169,94.5,74.58,74.58,0,0,1,94.5,169Z"/></g></g></g><g id="Help_Page" data-name="Help Page"><path class="cls-3" d="M37.67,50.52Q74.42,59.06,105.74,38S105.72,209.86,37.67,50.52Z"/><path d="M93.71,74.72Q125.11,95.66,161.83,87S101.33,247.82,93.71,74.72Z"/><path class="cls-1" d="M110.09,129.4q7.53,5.61,15,3.51S113.6,154,110.09,129.4Z"/><path class="cls-1" d="M117.44,109.44c-3.22-8.82-8.23-10-14.94-4C102.5,105.48,114.65,84.77,117.44,109.44Z"/><path class="cls-1" d="M142.39,114.1c-3.52-9.35-8.78-9.48-14.85-4.26C127.54,109.84,140.1,89.38,142.39,114.1Z"/><path d="M92.34,101.51q-9.18-1.94-15.14,3.11S78.86,80.66,92.34,101.51Z"/><path d="M72.28,72.92C64.68,66.3,59.91,68.35,57.14,76,57.14,76,58.8,52.07,72.28,72.92Z"/><path d="M97.35,66.9C89.75,59.91,85,62,82.22,70,82.22,70,83.88,46.05,97.35,66.9Z"/></g></g></svg>