<svg xmlns="http://www.w3.org/2000/svg" viewBox="0 0 4093.25 201.5"><defs><style>.cls-1,.cls-3,.cls-5,.cls-8{fill:#679436;}.cls-1,.cls-2{opacity:0.61;}.cls-2,.cls-4,.cls-6,.cls-7{fill:#a5be00;}.cls-3,.cls-4{opacity:0.6;}.cls-5{opacity:0.68;}.cls-7{opacity:0.65;}.cls-8{opacity:0.48;}</style></defs><title>Asset 3</title><g id="Layer_2" data-name="Layer 2"><g id="Home_page" data-name="Home page"><g id="Trees"><polyline class="cls-1" points="0.25 198 83.25 198 33.59 0 0 133.94"/><polyline class="cls-2" points="83.25 198 133.25 198 83.59 0 33.93 198 83.25 198"/><path class="cls-3" d="M-170.08,114.33h56.66l4,0L-150.41-49l-40.88,163,20.68.5A.88.88,0,0,1-170.08,114.33Z" transform="translate(283 84)"/><polyline class="cls-3" points="118.93 198 218.25 198 168.59 0 118.93 198"/><path class="cls-3" d="M-10.17,114.33-59.41-82l-49.23,196.3c1.55,0,3.1,0,4.64,0Z" transform="translate(283 84)"/><path class="cls-4" d="M-113.42,114.33c3.21,0,6.41-.06,9.6,0h74.65L-78.41-82l-49.16,196,3.09.33Z" transform="translate(283 84)"/><polygon class="cls-4" points="229.4 198.33 224.44 198 224.35 198.33 229.4 198.33"/><path class="cls-4" d="M16.47,114.5h23.4L-9.41-82-58.57,114l5,.33H15.92A1,1,0,0,1,16.47,114.5Z" transform="translate(283 84)"/><path class="cls-4" d="M64.86,114.5a.89.89,0,0,1,.64-.25h55.05L73.59-73l-47,187.5Z" transform="translate(283 84)"/><polygon class="cls-4" points="443.8 198.25 397.59 14 351.38 198.25 443.8 198.25"/><path class="cls-5" d="M200.86,114.25a.89.89,0,0,1,.64-.25h17L177.59-49,136.65,114.25" transform="translate(283 84)"/><path class="cls-4" d="M200.86,114.25a.89.89,0,0,1,.64-.25h90.24L245.59-70,199.38,114.25Z" transform="translate(283 84)"/><polygon class="cls-6" points="635.74 198 589.59 14 543.45 198 635.74 198"/><polygon class="cls-6" points="708.74 198 662.59 14 616.45 198 708.74 198"/><polygon class="cls-4" points="758.74 198 712.59 14 666.45 198 758.74 198"/><polygon class="cls-3" points="673.74 198 627.59 14 581.45 198 673.74 198"/><polygon class="cls-3" points="760.25 198 760.25 198 795.7 198 762.59 66 729.49 198 760.25 198"/><polyline class="cls-4" points="850.47 198 809.59 35 768.71 198"/><polyline class="cls-3" points="900.93 197.82 859.59 33 818.21 198"/><polyline class="cls-3" points="900.21 198 941.25 198 891.59 0 841.93 198"/><line class="cls-3" x1="841.93" y1="198" x2="900.21" y2="198"/><polyline class="cls-4" points="982.97 198 941.59 33 900.21 198"/><polyline class="cls-7" points="1015.97 197.99 974.59 33 933.21 198"/><polyline class="cls-3" points="1056.97 198 1015.59 33 974.21 198"/><polygon class="cls-4" points="1065.59 0 1015.93 198 1115.25 198 1065.59 0"/><polyline class="cls-3" points="1161.75 198 1112.59 2 1063.43 198"/><polyline class="cls-4" points="1208.74 198 1162.59 14 1116.44 198"/><polyline class="cls-4" points="1250.96 198 1212.59 45 1174.22 198"/><polygon class="cls-3" points="1270.76 198.25 1237.59 66 1204.42 198.25 1270.76 198.25"/><path class="cls-2" d="M1005.75,114.25H1046L1004.59-51,963.21,114l42.1.35A1,1,0,0,1,1005.75,114.25Z" transform="translate(283 84)"/><polygon class="cls-8" points="1337.59 33 1296.21 198 1366.25 198 1366.25 147.27 1337.59 33"/><path class="cls-3" d="M16.45,114.5H64.86a.89.89,0,0,1,.64-.25h1.3L20.59-70-25.64,114.33H15.92A.93.93,0,0,1,16.45,114.5Z" transform="translate(283 84)"/></g><g id="Trees-2" data-name="Trees"><polyline class="cls-1" points="1365 133.94 1398.59 0 1448.25 198 1365.25 198"/><polyline class="cls-2" points="1448.25 198 1498.25 198 1448.59 0 1398.93 198 1448.25 198"/><path class="cls-3" d="M1194.92,114.33h56.66l4,0L1214.59-49l-40.88,163,20.68.5A.88.88,0,0,1,1194.92,114.33Z" transform="translate(283 84)"/><polyline class="cls-3" points="1483.93 198 1583.25 198 1533.59 0 1483.93 198"/><path class="cls-3" d="M1354.83,114.33,1305.59-82l-49.23,196.3c1.55,0,3.1,0,4.64,0Z" transform="translate(283 84)"/><path class="cls-4" d="M1251.58,114.33c3.21,0,6.41-.06,9.6,0h74.65L1286.59-82l-49.16,196,3.09.33Z" transform="translate(283 84)"/><polygon class="cls-4" points="1594.4 198.33 1589.43 198 1589.35 198.33 1594.4 198.33"/><path class="cls-4" d="M1381.47,114.5h23.4L1355.59-82l-49.16,196,5,.33h69.52A1,1,0,0,1,1381.47,114.5Z" transform="translate(283 84)"/><path class="cls-4" d="M1429.86,114.5a.89.89,0,0,1,.64-.25h55L1438.59-73l-47,187.5Z" transform="translate(283 84)"/><polygon class="cls-4" points="1808.8 198.25 1762.59 14 1716.38 198.25 1808.8 198.25"/><path class="cls-5" d="M1565.86,114.25a.89.89,0,0,1,.64-.25h17L1542.59-49l-40.94,163.25" transform="translate(283 84)"/><path class="cls-4" d="M1565.86,114.25a.89.89,0,0,1,.64-.25h90.24L1610.59-70l-46.21,184.25Z" transform="translate(283 84)"/><polygon class="cls-6" points="2000.74 198 1954.59 14 1908.44 198 2000.74 198"/><polygon class="cls-6" points="2073.74 198 2027.59 14 1981.44 198 2073.74 198"/><polygon class="cls-4" points="2123.74 198 2077.59 14 2031.44 198 2123.74 198"/><polygon class="cls-3" points="2038.74 198 1992.59 14 1946.44 198 2038.74 198"/><polygon class="cls-3" points="2125.25 198 2125.25 198 2160.7 198 2127.59 66 2094.49 198 2125.25 198"/><polyline class="cls-4" points="2215.47 198 2174.59 35 2133.71 198"/><polyline class="cls-3" points="2265.93 197.82 2224.59 33 2183.21 198"/><polyline class="cls-3" points="2265.21 198 2306.25 198 2256.59 0 2206.93 198"/><line class="cls-3" x1="2206.93" y1="198" x2="2265.21" y2="198"/><polyline class="cls-4" points="2347.97 198 2306.59 33 2265.21 198"/><polyline class="cls-7" points="2380.97 197.99 2339.59 33 2298.21 198"/><polyline class="cls-3" points="2421.97 198 2380.59 33 2339.21 198"/><polygon class="cls-4" points="2430.59 0 2380.93 198 2480.25 198 2430.59 0"/><polyline class="cls-3" points="2526.75 198 2477.59 2 2428.43 198"/><polyline class="cls-4" points="2573.74 198 2527.59 14 2481.45 198"/><polyline class="cls-4" points="2615.96 198 2577.59 45 2539.22 198"/><polygon class="cls-3" points="2635.76 198.25 2602.59 66 2569.42 198.25 2635.76 198.25"/><path class="cls-2" d="M2370.75,114.25H2411L2369.59-51l-41.38,165,42.1.35A1,1,0,0,1,2370.75,114.25Z" transform="translate(283 84)"/><polygon class="cls-8" points="2702.59 33 2661.21 198 2731.25 198 2731.25 147.27 2702.59 33"/><path class="cls-3" d="M1381.45,114.5h48.41a.89.89,0,0,1,.64-.25h1.3L1385.59-70l-46.23,184.33h41.56A.93.93,0,0,1,1381.45,114.5Z" transform="translate(283 84)"/></g><g id="Trees-3" data-name="Trees"><polyline class="cls-1" points="2727.25 201 2810.25 201 2760.59 3 2727 136.94"/><polyline class="cls-2" points="2810.25 201 2860.25 201 2810.59 3 2760.93 201 2810.25 201"/><path class="cls-3" d="M2556.92,117.33h56.66l4,0L2576.59-46l-40.88,163,20.68.5A.88.88,0,0,1,2556.92,117.33Z" transform="translate(283 84)"/><polyline class="cls-3" points="2845.93 201 2945.25 201 2895.59 3 2845.93 201"/><path class="cls-3" d="M2716.83,117.33,2667.59-79l-49.23,196.3c1.55,0,3.1,0,4.64,0Z" transform="translate(283 84)"/><path class="cls-4" d="M2613.58,117.33c3.21,0,6.41-.06,9.6,0h74.65L2648.59-79l-49.16,196,3.09.33Z" transform="translate(283 84)"/><polygon class="cls-4" points="2956.4 201.33 2951.43 201 2951.35 201.33 2956.4 201.33"/><path class="cls-4" d="M2743.47,117.5h23.4L2717.59-79l-49.16,196,5,.33h69.52A1,1,0,0,1,2743.47,117.5Z" transform="translate(283 84)"/><path class="cls-4" d="M2791.86,117.5a.89.89,0,0,1,.64-.25h55.05L2800.59-70l-47,187.5Z" transform="translate(283 84)"/><polygon class="cls-4" points="3170.8 201.25 3124.59 17 3078.38 201.25 3170.8 201.25"/><path class="cls-5" d="M2927.86,117.25a.89.89,0,0,1,.64-.25h17L2904.59-46l-40.94,163.25" transform="translate(283 84)"/><path class="cls-4" d="M2927.86,117.25a.89.89,0,0,1,.64-.25h90.24L2972.59-67l-46.21,184.25Z" transform="translate(283 84)"/><polygon class="cls-6" points="3362.74 201 3316.59 17 3270.45 201 3362.74 201"/><polygon class="cls-6" points="3435.74 201 3389.59 17 3343.45 201 3435.74 201"/><polygon class="cls-4" points="3485.74 201 3439.59 17 3393.45 201 3485.74 201"/><polygon class="cls-3" points="3400.74 201 3354.59 17 3308.45 201 3400.74 201"/><polygon class="cls-3" points="3487.25 201 3487.25 201 3522.7 201 3489.59 69 3456.49 201 3487.25 201"/><polyline class="cls-4" points="3577.47 201 3536.59 38 3495.71 201"/><polyline class="cls-3" points="3627.93 200.82 3586.59 36 3545.21 201"/><polyline class="cls-3" points="3627.21 201 3668.25 201 3618.59 3 3568.93 201"/><line class="cls-3" x1="3568.93" y1="201" x2="3627.21" y2="201"/><polyline class="cls-4" points="3709.97 201 3668.59 36 3627.21 201"/><polyline class="cls-7" points="3742.97 200.99 3701.59 36 3660.21 201"/><polyline class="cls-3" points="3783.97 201 3742.59 36 3701.21 201"/><polygon class="cls-4" points="3792.59 3 3742.93 201 3842.25 201 3792.59 3"/><polyline class="cls-3" points="3888.75 201 3839.59 5 3790.43 201"/><polyline class="cls-4" points="3935.74 201 3889.59 17 3843.45 201"/><polyline class="cls-4" points="3977.96 201 3939.59 48 3901.22 201"/><polygon class="cls-3" points="3997.76 201.25 3964.59 69 3931.42 201.25 3997.76 201.25"/><path class="cls-2" d="M3732.75,117.25H3773L3731.59-48l-41.38,165,42.1.35A1,1,0,0,1,3732.75,117.25Z" transform="translate(283 84)"/><polygon class="cls-8" points="4064.59 36 4023.21 201 4093.25 201 4093.25 150.27 4064.59 36"/><path class="cls-3" d="M2743.45,117.5h48.41a.89.89,0,0,1,.64-.25h1.3L2747.59-67l-46.23,184.33h41.56A.93.93,0,0,1,2743.45,117.5Z" transform="translate(283 84)"/></g></g></g></svg>