<svg xmlns="http://www.w3.org/2000/svg" viewBox="0 0 3935 731"><defs><style>.cls-1{opacity:0.71;}.cls-2{fill:#9fbbcf;}.cls-3{opacity:0.54;}.cls-4{fill:#9bc2d1;}.cls-5{fill:#75abc0;}</style></defs><title>Asset 2</title><g id="Layer_2" data-name="Layer 2"><g id="Home_page" data-name="Home page"><g class="cls-1"><polyline class="cls-2" points="0 728 613 728 236.12 20 0 463.56"/></g><g class="cls-3"><polygon class="cls-4" points="615.75 728 760 728 760 728 1007.68 728 668.2 140 328.72 728 615.75 728 615.75 728"/></g><g class="cls-3"><polygon class="cls-5" points="1367 692.06 1120.32 6 859.63 731 1367 731 1367 692.06"/></g><g class="cls-1"><polyline class="cls-2" points="1897 725 1520.12 17 1284 460.56 1380 726"/></g><g class="cls-3"><polygon class="cls-4" points="1899.75 725 2044 725 2044 725 2291.68 725 1952.2 137 1612.72 725 1899.75 725 1899.75 725"/></g><g class="cls-3"><polyline class="cls-5" points="2650 686.06 2403.32 0 2142.63 725 2650 725"/></g><g class="cls-1"><polyline class="cls-2" points="3182 725 2805.12 17 2569 460.56 2665 726"/></g><g class="cls-3"><polygon class="cls-4" points="3184.75 725 3329 725 3329 725 3576.68 725 3237.2 137 2897.72 725 3184.75 725 3184.75 725"/></g><g class="cls-3"><polyline class="cls-5" points="3935 686.06 3688.32 0 3427.63 725 3935 725"/></g></g></g></svg>