<svg xmlns="http://www.w3.org/2000/svg" xmlns:xlink="http://www.w3.org/1999/xlink" viewBox="0 0 565.79 219.35"><defs><style>.cls-1{fill:url(#linear-gradient);}.cls-2{fill:#05668d;}</style><linearGradient id="linear-gradient" x1="280.12" y1="124.79" x2="280.12" gradientUnits="userSpaceOnUse"><stop offset="0" stop-color="#ebf2fa"/><stop offset="0.05" stop-color="#ceddd9"/><stop offset="0.11" stop-color="#b3caba"/><stop offset="0.17" stop-color="#9bb99e"/><stop offset="0.24" stop-color="#88ab88"/><stop offset="0.33" stop-color="#79a177"/><stop offset="0.44" stop-color="#6f996c"/><stop offset="0.59" stop-color="#699565"/><stop offset="1" stop-color="#679463"/></linearGradient></defs><title>Asset 1</title><g id="Layer_2" data-name="Layer 2"><g id="Home_page" data-name="Home page"><g id="Colour"><path class="cls-1" d="M0,124s23.93-7.11,28.12-10.46S142.86,45.23,142.86,45.23l18.85,1.67,34.92-23.24,2.72-1.88,2.72,4,4,.63,4,10.89,7.33-.21,2.73,3.14,8,.84S258.44,61.56,261,61.35s16.75-15.7,16.75-15.7,17.17-15.29,50.46-14.24c0,0,15.49-6.91,16.54-9.63S374,12.35,374,12.35l6.07-7.53L394.75,0l7.54,11.73,12.77,8.37s39.57,19.68,43.76,26.59L477.25,57l10.89,5.83,16.33,9.67,24.29,31.18s29.31,17,31.4,20.1-34.75-9-34.75-9l-6.29,7.73-9.42-6.7-9.63.63s-30.78-3.56-34.76-2.51,12.78-11.31,42.93-11.31l7.33-1.46s-17.8-27.84-21.78-28.05-59.05-22.4-59.05-22.4l-19.89-3.14S400.4,32.25,390.14,31.62l1.26,14.23,27.43,8.8L426,60.93l20.73,8s-58.63-1.68-62-4.61,9.21-7.75,9.21-7.75L371.3,49.21,361.88,35s-22.41,21.56-38.74,30.78-44.81,19.89-44.81,19.89L257.19,109.3s-3.56-8.8,5.86-16.75l7.12-10.47,15.07-9.84,16.54-6.7,10.47-5.66s17.17-11.3,8.17-15.28c-38.05-9-67.32,51.61-90.87,56.64-27.13,5.78-79.42,23.55-130.66,23.55l2.72-3.14,25.55-4.6s67.42-11.52,77.47-16.55,38.11-27.84,38.11-27.84-28.27-20.52-35.6-19.9S183.69,54,176.36,60.51L169,67l-17,17.17-4.19,3.77-6.7,8L129,103.64l1.47-10.26-29.73,10.06H85.91l4.19-3.35,4.19-.21S149.77,75,136.16,67.21L38.38,118.09,0,124.79"/><path class="cls-2" d="M50.21,105.52,35.14,176a11.82,11.82,0,0,0,7.16,2.52c15,0,24.12-29.91,24.12-55.29,0-17.08-7.41-23.74-18.34-23.74-18.72,0-32.92,11.43-32.92,30.53,0,6.41,1.63,7.41,1.76,8.54-8.29,0-13.45-3.14-13.45-11.68,0-17.21,21.24-33.17,46.74-33.17,24.38,0,33.55,17,33.55,36.18,0,28.9-16.21,59.68-34.8,59.68-4.78,0-9.93-2-15.33-6.66l-1,5H14.53L31.62,108Z"/><path class="cls-2" d="M146.32,125.12l-9,42.72a17.72,17.72,0,0,0-.5,4c0,3.51,1.63,5.4,5.15,5.4,4.9,0,8.3-5.53,10.18-11.81h5.28c-7.16,20.48-18.47,23.24-25.26,23.24-7,0-11.56-4-12.31-11.56-3.89,5.78-9.8,11.56-18.72,11.56-8.54,0-16.71-5.28-16.71-20.23,0-17,10.43-44,32.29-44,7.16,0,10.18,2.76,10.18,6.41v.88l1.38-6.66ZM103,166.7c0,9.68,4,9.8,6.28,9.8,3.64,0,8.92-3.76,10.43-11.05l6-28.4a4.88,4.88,0,0,0-5.16-4.77C109.88,132.28,103,154.89,103,166.7Z"/><path class="cls-2" d="M178.73,125.12l-9,42.72a13.4,13.4,0,0,0-.37,3.14c0,2.89.88,5.52,3.77,5.52,4.9,0,8.16-4.77,10-11.05l8.54-40.33h18.22L194.56,198c-3.77,18-14.57,21.36-22.87,21.36-7.66,0-14.82-5.41-14.82-13.57,0-11.69,9.8-15.33,21.73-18.85l1.26-5.53c-5.4,6.16-11.06,7.29-15.33,7.29-7.54,0-13.44-4.52-13.44-15.08a41.75,41.75,0,0,1,1-8.16l8.55-40.33Zm-9.93,83c2.52,0,5.78-2.38,7.42-9.8l1.5-7.41c-7.91,2.64-13.94,6.28-13.94,13.07C163.78,205.78,166,208.16,168.8,208.16Z"/><path class="cls-2" d="M265,107.28,247.7,187.94H229.61l17.84-83.17h-1.51c-13.32,0-23.62,5.15-23.62,25.37,0,6.41,1.63,7.42,1.76,8.55-8.67,0-13.44-3.14-13.44-12.19,0-16.71,11.81-32.66,42.84-32.66,15.2,0,19.85,2.88,32.16,2.88a40.92,40.92,0,0,0,14.58-2.63c-.25,10.93-5.66,16-15.71,16C278.36,110,271.82,108.79,265,107.28Z"/><path class="cls-2" d="M296.94,125.12l-1.63,7.79c4.4-3.77,9.17-7.79,15.2-7.79,5.66,0,8.67,4.65,8.67,9.42,0,4.4-2.89,9.17-9.05,9.17-7,0-3.51-8.29-7.28-8.29s-6,1.88-9.17,4.78l-10.05,47.74h-18.1l13.32-62.82Z"/><path class="cls-2" d="M351.09,165.45c-1.88,6.28-6.41,11.05-11.31,11.05-3.52,0-5.15-1.13-5.15-4.64a17.72,17.72,0,0,1,.5-4l9.05-42.72H326.09l-8.54,40.33a41.07,41.07,0,0,0-1,8.16c0,10.56,5.91,15.08,13.44,15.08,6.79,0,19.23-2.76,26.39-23.24Z"/><path class="cls-2" d="M378.73,120.47l-2,9.42a21.81,21.81,0,0,1,14.7-5.4c8.54,0,15.32,4.9,15.32,19.85,0,17-6.53,44.35-30.9,44.35-6.28,0-9.3-2.14-10.68-4.52l-6.53,30.65-19,4.53,21-98.88ZM389.53,144c0-9.67-4-10.42-6.28-10.42-2.76,0-6.28,2.13-8.67,6.15l-7.41,35.18c.5,1.38,1.88,2.89,4.77,2.89C385.13,177.76,389.53,155.77,389.53,144Z"/><path class="cls-2" d="M437.52,120.47l-2,9.42a21.83,21.83,0,0,1,14.7-5.4c8.54,0,15.33,4.9,15.33,19.85,0,17-6.54,44.35-30.91,44.35-6.28,0-9.3-2.14-10.68-4.52l-6.53,30.65-19,4.53,21-98.88ZM448.33,144c0-9.67-4-10.42-6.29-10.42-2.76,0-6.28,2.13-8.67,6.15L426,174.87c.51,1.38,1.89,2.89,4.78,2.89C443.93,177.76,448.33,155.77,448.33,144Z"/><path class="cls-2" d="M494.68,178.14c9.93,0,16-5.53,22.24-12.69h4.27C514,177,503.35,188.69,486.64,188.69c-11.81,0-19.6-5.78-19.6-20C467,154.27,475.21,124,501,124c11.18,0,13.82,5.78,13.82,12.06,0,14.45-13.82,25.63-28.89,26.51-.13,1.76-.26,3.52-.26,5C485.63,176.13,488.65,178.14,494.68,178.14ZM502,130.65c-6.41,0-12.56,13.44-15.08,25.88,9.68-.63,18.22-10.3,18.22-20.73C505.11,132.66,504.36,130.65,502,130.65Z"/><path class="cls-2" d="M543.55,125.12l-1.63,7.79c4.4-3.77,9.17-7.79,15.2-7.79,5.65,0,8.67,4.65,8.67,9.42,0,4.4-2.89,9.17-9,9.17-7,0-3.51-8.29-7.28-8.29s-6,1.88-9.17,4.78l-10,47.74h-18.1l13.32-62.82Z"/><path class="cls-2" d="M349.06,114.94c-.19-.55-1.73-3.1-13.45-3.19-9.9.27-11.37,2.09-11.51,2.19a5.42,5.42,0,0,0-.52,1,3.65,3.65,0,0,0,.21,1.17s-.89,1.75,4.68,2.72c0,0,2.37,1.67,7.9,1.67s8.39-1.72,8.39-1.72,4.64-.89,4.27-2.32A4.26,4.26,0,0,0,349.06,114.94Z"/><path class="cls-2" d="M352.94,107.12c-.3-1.8-3.49-3.25-8.74-4l0-1.77-.46-1-2.5-1-3.73-.41H337V94.75s1.15-.15,1-.55v-.78s-.17-.37-.89-.34v-.32h-.32V88.65s1.26,0,1.11-.51l0-.67s0-.5-1.23-.57V83.78s1.23,0,1.06-.51v-.79a1.64,1.64,0,0,0-1.12-.48V76.56s-.22-.32-.43,0V82s-1.12.17-1.13.48v.88a1.11,1.11,0,0,0,1,.47v3s-1,.2-1.15.44v.83s0,.5,1,.52v4h-.31v.34s-.85,0-.87.49v.72s0,.53,1,.48v4.18l-2.49.14-3.23.63-1.45,1.12v2.3s-8.28,1.07-8.73,3.68v2l.07-.11c.29-.28,1.38-3.42,15.59-3.67,14.9-.25,17.33,3.41,17.32,4.24a1.46,1.46,0,0,0,0-.22A15.55,15.55,0,0,0,352.94,107.12Z"/><path class="cls-2" d="M335.62,107.41c-11.33.33-13,2.54-13.18,2.66a6.51,6.51,0,0,0-.6,1.17h0l.13,1.55c.33-.41,1.72-2.8,13.58-3,13.09-.21,15.23,3,15.19,3.62a.36.36,0,0,1,0,.1,1.77,1.77,0,0,0,.15-.55v-1.63S350.68,107.54,335.62,107.41Z"/></g></g></g></svg>