<svg xmlns="http://www.w3.org/2000/svg" viewBox="0 0 230.87 189.03"><defs><style>.cls-1{fill:#ef402e;}.cls-2,.cls-4,.cls-5{fill:#fff;}.cls-3{fill:#f9d10b;}.cls-4{stroke:#231f20;}.cls-4,.cls-5{stroke-miterlimit:10;}.cls-5{stroke:#ea3f4c;stroke-width:1.36px;}.cls-6{fill:#ea3f4c;}</style></defs><title>Asset 1</title><g id="Layer_2" data-name="Layer 2"><g id="icons"><g id="Markers"><g id="Red"><path class="cls-1" d="M185.17,13.6A94.5,94.5,0,0,0,42.15,102L0,171.83l84.25,1.61-.08-.15c1.11.73,2.23,1.45,3.38,2.14A94.5,94.5,0,1,0,185.17,13.6ZM97.88,158.31A74.5,74.5,0,1,1,200.15,133,74.59,74.59,0,0,1,97.88,158.31Z"/><circle class="cls-2" cx="136.15" cy="94.49" r="74.5"/></g></g><g id="Wreck"><circle class="cls-3" cx="175.1" cy="97.88" r="16.09"/><polygon class="cls-3" points="175 69.32 171.98 80.74 178.21 80.74 175 69.32"/><polygon class="cls-3" points="160.73 73.2 163.83 84.6 169.23 81.48 160.73 73.2"/><polygon class="cls-3" points="150.32 83.69 158.7 92.01 161.82 86.61 150.32 83.69"/><polygon class="cls-3" points="146.54 97.98 157.96 100.99 157.96 94.76 146.54 97.98"/><polygon class="cls-3" points="150.42 112.24 161.82 109.14 158.7 103.75 150.42 112.24"/><polygon class="cls-3" points="160.9 122.66 169.23 114.27 163.83 111.16 160.9 122.66"/><polygon class="cls-3" points="175.19 126.43 178.21 115.01 171.98 115.01 175.19 126.43"/><polygon class="cls-3" points="189.46 122.56 186.36 111.16 180.97 114.27 189.46 122.56"/><polygon class="cls-3" points="199.88 112.07 191.49 103.75 188.38 109.14 199.88 112.07"/><polygon class="cls-3" points="203.65 97.78 192.23 94.76 192.23 100.99 203.65 97.78"/><polygon class="cls-3" points="199.78 83.51 188.38 86.61 191.49 92.01 199.78 83.51"/><polygon class="cls-3" points="189.29 73.1 180.97 81.48 186.36 84.6 189.29 73.1"/><rect class="cls-4" x="138.79" y="71.8" width="3.4" height="78.87" transform="translate(-36.41 82.62) rotate(-29.18)"/><path class="cls-5" d="M179.75,54.42C171,35.94,139.5,32.53,109.49,46.81S62.28,87.64,71.08,106.12c12.48-.8,22.9-5.18,30.48-14.51,18.19-3.46,33.85-9.57,44.34-21.08C159.44,70.29,170.66,64.79,179.75,54.42Z"/><path class="cls-6" d="M101.61,91.46s-15.64-28-1-39.86c18.43-14.87,46.63,3,45.54,19C141.87,81.48,101.6,97.07,101.61,91.46Z"/></g></g></g></svg>