<svg xmlns="http://www.w3.org/2000/svg" xmlns:xlink="http://www.w3.org/1999/xlink" viewBox="0 0 225.18 87.3"><defs><style>.cls-1{fill:url(#linear-gradient);}.cls-2{fill:#05668d;}</style><linearGradient id="linear-gradient" x1="111.49" y1="49.67" x2="111.49" gradientUnits="userSpaceOnUse"><stop offset="0" stop-color="#ebf2fa"/><stop offset="0.05" stop-color="#ceddd9"/><stop offset="0.11" stop-color="#b3caba"/><stop offset="0.17" stop-color="#9bb99e"/><stop offset="0.24" stop-color="#88ab88"/><stop offset="0.33" stop-color="#79a177"/><stop offset="0.44" stop-color="#6f996c"/><stop offset="0.59" stop-color="#699565"/><stop offset="1" stop-color="#679463"/></linearGradient></defs><title>Asset 1</title><g id="Layer_2" data-name="Layer 2"><g id="Layer_1-2" data-name="Layer 1"><g id="Colour"><path class="cls-1" d="M0,49.33s9.53-2.83,11.19-4.16S56.86,18,56.86,18l7.5.67,13.9-9.25,1.08-.75,1.08,1.58L82,10.5l1.6,4.33,2.92-.08L87.61,16l3.17.33s12.08,8.17,13.08,8.09,6.67-6.25,6.67-6.25,6.83-6.09,20.08-5.67c0,0,6.17-2.75,6.58-3.83s11.67-3.75,11.67-3.75l2.42-3L157.11,0l3,4.67L165.19,8s15.75,7.83,17.42,10.58l7.33,4.09L194.28,25l6.5,3.85,9.66,12.41s11.67,6.75,12.5,8-13.83-3.57-13.83-3.57l-2.5,3.07-3.75-2.66-3.83.25s-12.25-1.42-13.84-1,5.09-4.5,17.09-4.5l2.91-.59s-7.08-11.07-8.66-11.16S173,20.17,173,20.17l-7.92-1.25s-5.75-6.09-9.83-6.34l.5,5.67,10.91,3.5,2.84,2.5,8.25,3.17s-23.34-.67-24.67-1.84,3.67-3.08,3.67-3.08l-9-2.92L144,13.92s-8.92,8.58-15.42,12.25-17.83,7.91-17.83,7.91l-8.42,9.42s-1.42-3.5,2.33-6.67l2.84-4.16,6-3.92,6.58-2.67,4.17-2.25s6.83-4.5,3.25-6.08c-15.15-3.58-26.8,20.54-36.17,22.54-10.8,2.3-31.61,9.38-52,9.38l1.08-1.25,10.17-1.84S77.44,42,81.44,40,96.61,28.92,96.61,28.92,85.36,20.75,82.44,21s-9.33.5-12.25,3.08l-2.91,2.59L60.53,33.5,58.86,35l-2.67,3.17-4.83,3.08.58-4.08-11.83,4H34.19l1.67-1.34,1.67-.08s22.08-9.92,16.66-13L15.28,47,0,49.67"/><path class="cls-2" d="M20,42,14,70.05a4.71,4.71,0,0,0,2.85,1c6,0,9.6-11.9,9.6-22,0-6.8-2.95-9.45-7.3-9.45C11.68,39.6,6,44.15,6,51.75a7,7,0,0,0,.7,3.4c-3.3,0-5.35-1.25-5.35-4.65,0-6.85,8.45-13.2,18.6-13.2,9.7,0,13.36,6.75,13.36,14.4,0,11.5-6.46,23.75-13.86,23.75a9.43,9.43,0,0,1-6.1-2.65l-.4,2H5.78L12.58,43Z"/><path class="cls-2" d="M58.23,49.8l-3.6,17a6.94,6.94,0,0,0-.2,1.6c0,1.4.65,2.15,2,2.15,2,0,3.3-2.2,4.05-4.7h2.1C59.78,74,55.28,75.1,52.58,75.1s-4.6-1.6-4.9-4.6c-1.55,2.3-3.9,4.6-7.45,4.6-3.4,0-6.65-2.1-6.65-8,0-6.75,4.15-17.5,12.85-17.5,2.85,0,4,1.1,4,2.55v.35L51,49.8ZM41,66.35c0,3.85,1.6,3.9,2.5,3.9,1.45,0,3.55-1.5,4.15-4.4L50,54.55A1.94,1.94,0,0,0,48,52.65C43.73,52.65,41,61.65,41,66.35Z"/><path class="cls-2" d="M71.13,49.8l-3.6,17a5.34,5.34,0,0,0-.15,1.25c0,1.15.35,2.2,1.5,2.2,2,0,3.25-1.9,4-4.4l3.4-16h7.25l-6.1,29c-1.5,7.15-5.8,8.5-9.1,8.5-3,0-5.9-2.15-5.9-5.4,0-4.65,3.9-6.1,8.65-7.5l.5-2.2a7.73,7.73,0,0,1-6.1,2.9c-3,0-5.35-1.8-5.35-6a16.4,16.4,0,0,1,.4-3.25l3.4-16ZM67.18,82.85c1,0,2.3-.95,2.95-3.9l.6-3c-3.15,1-5.55,2.5-5.55,5.2A2,2,0,0,0,67.18,82.85Z"/><path class="cls-2" d="M105.48,42.7l-6.9,32.1h-7.2l7.1-33.1h-.6c-5.3,0-9.4,2-9.4,10.1a7,7,0,0,0,.7,3.4c-3.45,0-5.35-1.25-5.35-4.85,0-6.65,4.7-13,17-13,6.05,0,7.9,1.15,12.8,1.15a16.25,16.25,0,0,0,5.8-1c-.1,4.35-2.25,6.35-6.25,6.35A36.61,36.61,0,0,1,105.48,42.7Z"/><path class="cls-2" d="M118.18,49.8l-.65,3.1c1.75-1.5,3.65-3.1,6-3.1a3.71,3.71,0,0,1-.15,7.4c-2.8,0-1.4-3.3-2.9-3.3s-2.4.75-3.65,1.9l-4,19h-7.2l5.3-25Z"/><path class="cls-2" d="M139.73,65.85c-.75,2.5-2.55,4.4-4.5,4.4-1.4,0-2-.45-2-1.85a6.94,6.94,0,0,1,.2-1.6l3.6-17h-7.2l-3.4,16a16.4,16.4,0,0,0-.4,3.25c0,4.2,2.35,6,5.35,6,2.7,0,7.65-1.1,10.5-9.25Z"/><path class="cls-2" d="M150.73,48l-.8,3.75a8.69,8.69,0,0,1,5.85-2.15c3.4,0,6.1,2,6.1,7.9,0,6.75-2.6,17.65-12.3,17.65-2.5,0-3.7-.85-4.25-1.8l-2.6,12.2-7.55,1.8L143.53,48ZM155,57.3c0-3.85-1.6-4.15-2.5-4.15a4.47,4.47,0,0,0-3.45,2.45l-3,14a1.85,1.85,0,0,0,1.9,1.15C153.28,70.75,155,62,155,57.3Z"/><path class="cls-2" d="M174.13,48l-.8,3.75a8.69,8.69,0,0,1,5.85-2.15c3.4,0,6.1,2,6.1,7.9,0,6.75-2.6,17.65-12.3,17.65-2.5,0-3.7-.85-4.25-1.8l-2.6,12.2-7.55,1.8L166.93,48Zm4.3,9.35c0-3.85-1.6-4.15-2.5-4.15a4.47,4.47,0,0,0-3.45,2.45l-2.95,14a1.85,1.85,0,0,0,1.9,1.15C176.68,70.75,178.43,62,178.43,57.3Z"/><path class="cls-2" d="M196.88,70.9c4,0,6.35-2.2,8.85-5.05h1.7c-2.85,4.6-7.1,9.25-13.75,9.25-4.7,0-7.8-2.3-7.8-7.95s3.25-17.8,13.5-17.8c4.45,0,5.5,2.3,5.5,4.8,0,5.75-5.5,10.2-11.5,10.55,0,.7-.1,1.4-.1,2C193.28,70.1,194.48,70.9,196.88,70.9Zm2.9-18.9c-2.55,0-5,5.35-6,10.3,3.85-.25,7.25-4.1,7.25-8.25C201,52.8,200.73,52,199.78,52Z"/><path class="cls-2" d="M216.33,49.8l-.65,3.1c1.75-1.5,3.65-3.1,6-3.1a3.71,3.71,0,0,1-.15,7.4c-2.8,0-1.4-3.3-2.9-3.3s-2.4.75-3.65,1.9l-4,19h-7.2l5.3-25Z"/><path class="cls-2" d="M138.92,45.74c-.07-.21-.68-1.23-5.35-1.27-3.94.11-4.52.84-4.58.88a2.93,2.93,0,0,0-.21.38,1.34,1.34,0,0,0,.09.47s-.36.7,1.86,1.08a5.74,5.74,0,0,0,3.14.67,6.89,6.89,0,0,0,3.34-.69s1.85-.35,1.7-.92A1.44,1.44,0,0,0,138.92,45.74Z"/><path class="cls-2" d="M140.47,42.63c-.12-.71-1.39-1.29-3.48-1.57v-.71l-.19-.41-1-.4-1.48-.16h-.2V37.71s.45-.06.41-.22v-.31s-.07-.15-.35-.14v-.12h-.13V35.28s.5,0,.44-.2v-.27s0-.2-.49-.23V33.34s.49,0,.42-.2v-.31a.64.64,0,0,0-.44-.2V30.47s-.09-.13-.17,0v2.17s-.45.07-.46.19v.35a.46.46,0,0,0,.41.19v1.21s-.39.08-.46.18v.33s0,.19.41.2v1.62h-.12V37s-.35,0-.35.19v.29s0,.21.41.19v1.67l-1,0-1.29.26-.58.44V41s-3.29.43-3.47,1.47v.81l0,0c.11-.12.55-1.36,6.2-1.46,5.93-.1,6.9,1.35,6.89,1.69a.29.29,0,0,0,0-.09A5.84,5.84,0,0,0,140.47,42.63Z"/><path class="cls-2" d="M133.58,42.75c-4.52.13-5.18,1-5.25,1.06a2.26,2.26,0,0,0-.24.46h0l.06.61c.12-.16.68-1.11,5.4-1.19,5.21-.08,6.06,1.18,6.05,1.44,0,0,0,0,0,0a.54.54,0,0,0,.05-.22v-.65S139.57,42.8,133.58,42.75Z"/></g></g></g></svg>