<svg xmlns="http://www.w3.org/2000/svg" viewBox="0 0 117.99 66.51"><defs><style>.cls-1{fill:#ff8b0d;}.cls-2{fill:#49b9db;}</style></defs><title>fishAsset 1</title><g id="Layer_2" data-name="Layer 2"><g id="Layer_1-2" data-name="Layer 1"><g id="icons"><g id="Aquarium"><path class="cls-1" d="M70.31,33.39c1-7.22,3.28-14.93,7.35-21.25a57.81,57.81,0,0,0-14.77-1.88C42.55,10.26,20,14.7,20,27.08s22.5,28,42.84,28a62.3,62.3,0,0,0,9.93-.86C69.69,48,69.39,40.16,70.31,33.39Z"/><path class="cls-1" d="M84.3,13.29c-4.35,6.1-6.7,13.93-7.77,21.12-1,6.64-1,14.77,2.65,20.72C92.82,51.39,102.31,43,102.31,33.36,102.31,24.94,95.14,17.53,84.3,13.29Zm4.38,19c-5.21,0-5.2-8.1,0-8.1s5.21,8.11,0,8.11Z"/><path class="cls-1" d="M23.57,32.69l-3-9.77c-1-.85-2.11-1.95-2.72-2.55,0,0-.09-.22-.21-.48-1.1-7.13-16-21-17.64-16.64C.17,16.46,8.45,28.44,8.45,28.44l2.12-1.5L9,28.3S3.74,35.77,9,45.45c0,4.4-2.2,5.72-2.2,5.72s14-7.35,14.2-18.48Z"/><path class="cls-1" d="M58.75,57.76c-.58-.92,7.66,1.32,13.5-1S61.39,79.08,58.75,57.76Z"/><path class="cls-1" d="M40.28,10.26s32.11-4.83,37.38,0C77.66,3.67,35.88-9.09,40.28,10.26Z"/><circle class="cls-2" cx="109.79" cy="5.58" r="3.92"/><circle class="cls-2" cx="115.85" cy="17.34" r="2.14"/><circle class="cls-2" cx="107.3" cy="24.47" r="1.43"/></g></g></g></g></svg>