<svg xmlns="http://www.w3.org/2000/svg" viewBox="0 0 100.14 91.36"><defs><style>.cls-1{fill:#05668d;}.cls-2{fill:#ebf2fa;}.cls-3{fill:#679436;}.cls-4{opacity:0.49;isolation:isolate;}.cls-5,.cls-6{fill:none;}.cls-5{stroke:#679436;stroke-miterlimit:10;stroke-width:0.08px;}</style></defs><title>hockeyAsset 1</title><g id="Layer_2" data-name="Layer 2"><g id="Layer_1-2" data-name="Layer 1"><g id="icons"><path class="cls-1" d="M94.18,76.91,67.54,79a4.22,4.22,0,0,0-1.27.31L4.89,0,.65,3.28,64.22,85.41a4.24,4.24,0,0,0,2.67,2c7.46,1.83,16.7,2.7,28.06,2.45a4.25,4.25,0,0,0,4.16-4.34q0-.13,0-.25l-.35-4.43a4.26,4.26,0,0,0-4.57-3.93Z"/><path class="cls-2" d="M95,89.85a150.52,150.52,0,0,1-24.74-1.49l-1-9.48L93.07,77Z"/><path class="cls-3" d="M5.12,76,31.7,78.64A4.17,4.17,0,0,1,33,79L96,.92l4.17,3.36L34.9,85.11A4.3,4.3,0,0,1,32.19,87c-7.5,1.67-16.76,2.36-28.1,1.88A4.27,4.27,0,0,1,0,84.43q0-.12,0-.23l.44-4.42A4.25,4.25,0,0,1,5.12,76Z"/><path class="cls-2" d="M26.1,78.09l3.93.39-.89,9.16A107.45,107.45,0,0,1,4.05,88.93L6.22,76.11l19.79,2Z"/><ellipse class="cls-4" cx="49.9" cy="86.97" rx="7.03" ry="1"/><path d="M56.93,87c.34,3.69-.67,3.69-.67,3.69,0,.79-10.71,1-12.39,0-1.43-.86-1-3.69-1-3.69C45.55,88.31,55.26,88.31,56.93,87Z"/><line class="cls-5" x1="7.38" y1="76.26" x2="7.04" y2="88.98"/><polyline class="cls-3" points="9.96 89.06 11.77 76.65 11.85 76.67 10.04 89.07"/><polyline class="cls-3" points="15.3 89 13.08 76.8 13.17 76.81 15.38 89"/><polyline class="cls-3" points="19.04 88.82 16.05 77.09 16.14 77.1 19.13 88.82"/><polyline class="cls-3" points="21.23 88.68 20.58 77.54 20.66 77.55 21.32 88.67"/><polyline class="cls-3" points="25.34 88.23 22.67 77.75 22.58 77.74 25.25 88.24"/><polyline class="cls-3" points="26.01 78.08 28.48 87.76 28.56 87.75 26.1 78.09"/><line class="cls-6" x1="92.51" y1="76.93" x2="92.85" y2="89.65"/><polygon class="cls-1" points="92.81 89.65 92.47 76.93 92.55 76.93 92.89 89.65 92.81 89.65"/><polyline class="cls-1" points="89.93 89.74 88.12 77.32 88.04 77.33 89.85 89.74"/><polyline class="cls-1" points="84.59 89.67 86.81 77.47 86.72 77.47 84.51 89.67"/><polyline class="cls-1" points="80.85 89.49 83.84 77.76 83.75 77.77 80.76 89.49"/><polyline class="cls-1" points="78.66 89.35 79.32 78.21 79.23 78.22 78.57 89.34"/><polyline class="cls-1" points="74.55 88.9 77.22 78.42 77.31 78.41 74.64 88.91"/><polyline class="cls-1" points="73.88 78.75 71.41 88.43 71.33 88.42 73.79 78.76"/></g></g></g></svg>