<svg xmlns="http://www.w3.org/2000/svg" viewBox="0 0 93.83 113.73"><defs><style>.cls-1{fill:#7e71cc;}.cls-2{fill:#231f20;}.cls-3{fill:#fff;}</style></defs><title>mountainAsset 1</title><g id="Layer_2" data-name="Layer 2"><g id="Layer_1-2" data-name="Layer 1"><g id="icons"><g id="Grouse"><polygon class="cls-1" points="0.75 113.23 47.63 2.38 93.09 113.23 0.75 113.23"/><path class="cls-2" d="M47.62,3.68l44.72,109H1.51l46.11-109m0-2.61L0,113.73H93.83L47.63,1.07Z"/><polygon class="cls-3" points="32.54 48.8 26.08 53.32 47.33 1.32 68.45 53.16 62.8 48.77 56.22 54.08 48.44 48.81 40.12 54.1 32.54 48.8"/><path class="cls-2" d="M47.33,2.65l20,49-3.86-3-.63-.49-.61.5-6,4.83L49,48.61l-.55-.37-.55.35L40.13,53.5l-7-4.91-.57-.4-.58.4-4.77,3.34L47.33,2.65m0-2.65L25,54.7l7.57-5.29L40.1,54.7l8.33-5.29,7.78,5.29,6.55-5.29,6.82,5.29Z"/></g></g></g></g></svg>