<svg xmlns="http://www.w3.org/2000/svg" viewBox="0 0 115.75 102.21"><title>rioAsset 1</title><g id="Layer_2" data-name="Layer 2"><g id="Layer_1-2" data-name="Layer 1"><g id="Layer_2-2" data-name="Layer 2"><g id="icons"><g id="Rio_Theatre" data-name="Rio Theatre"><rect x="5.28" y="45.02" width="73.96" height="57.19" rx="28.59" ry="28.59"/><path d="M20.21,0A20.21,20.21,0,1,0,40.43,20.22h0A20.21,20.21,0,0,0,20.22,0Zm0,32.38A12.19,12.19,0,0,1,20.19,8h0A12.18,12.18,0,0,1,32.43,20.14s0,0,0,.07A12.18,12.18,0,0,1,20.24,32.38Z"/><path d="M64.08,0A20.21,20.21,0,1,0,84.29,20.21,20.21,20.21,0,0,0,64.08,0Zm0,32.38A12.19,12.19,0,0,1,64.07,8h0a12.19,12.19,0,0,1,0,24.38Z"/><path d="M86.81,56.27h0a5.51,5.51,0,0,1,5.51,5.51V83.37a5.51,5.51,0,0,1-5.51,5.51h0a5.51,5.51,0,0,1-5.51-5.51V61.78A5.51,5.51,0,0,1,86.81,56.27Z"/><polygon points="115.52 96.69 93.93 88.66 93.71 57.19 115.75 48.92 115.52 96.69"/></g></g></g></g></g></svg>