<svg xmlns="http://www.w3.org/2000/svg" viewBox="0 0 94.35 105.88"><defs><style>.cls-1{fill:#ebf2fa;}.cls-2{fill:#d9e4ec;}.cls-3{fill:#b5cbda;}.cls-4{fill:#93b3c9;}.cls-5{fill:#fff;}</style></defs><title>scienceAsset 1</title><g id="Layer_2" data-name="Layer 2"><g id="Layer_1-2" data-name="Layer 1"><g id="Layer_2-2" data-name="Layer 2"><g id="icons"><g id="Science_World" data-name="Science World"><g id="Science_world-2" data-name="Science world-2"><polygon points="72.27 105.88 20.44 105.88 46.36 60.99 72.27 105.88"/><circle class="cls-1" cx="47.08" cy="47.12" r="47.08"/><path class="cls-2" d="M75.19,84.71c-4.55,3.38-15.47,9.73-22.63,8.76L64.24,73.76Z"/><polygon class="cls-3" points="64.24 73.76 52.56 93.47 40.15 73.76 64.24 73.76"/><polyline class="cls-2" points="27.01 89.82 40.15 73.76 14.6 73.76 27.01 89.82"/><polyline class="cls-4" points="10.95 77.41 14.37 73.76 8.03 73.76 10.95 77.41"/><path class="cls-4" d="M52.56,93.47C45.9,95,31.73,93.08,27,89.82L40.15,73.76Z"/><path class="cls-3" d="M27,89.82A51.53,51.53,0,0,1,10.95,77.41l3.62-3.8Z"/><path class="cls-3" d="M14.6,73.76,1.46,51.88.73,53.34C.92,59.68,4.11,67.71,8,73.77Z"/><path class="cls-4" d="M86.13,73.76a47.84,47.84,0,0,1-10.94,11l-11-11Z"/><polygon class="cls-2" points="14.6 73.76 1.46 51.86 26.28 51.86 14.6 73.76"/><path class="cls-2" d="M89.05,67.88l-10.21-16H94.16A45.88,45.88,0,0,1,89.05,67.88Z"/><polygon class="cls-4" points="40.15 73.76 14.6 73.76 26.28 51.86 40.15 73.76"/><polygon class="cls-3" points="40.15 73.76 26.17 51.63 52.56 51.86 40.15 73.76"/><polygon class="cls-4" points="64.24 73.76 52.44 51.86 78.84 51.86 64.24 73.76"/><polygon class="cls-2" points="64.24 73.76 40.06 73.75 52.56 51.86 64.24 73.76"/><path class="cls-3" d="M64.24,73.76l14.6-21.88L89.44,67.7a66.3,66.3,0,0,1-3.31,6.07"/><polygon class="cls-4" points="26.28 51.86 1.46 51.86 13.87 30.7 26.28 51.86"/><path class="cls-4" d="M94.16,51.88H78.84l12.4-21.17C93.66,38.66,94.84,45.88,94.16,51.88Z"/><polygon class="cls-2" points="52.56 51.86 26.28 51.86 38.69 30.7 52.56 51.86"/><polygon class="cls-3" points="78.84 51.86 52.56 51.86 64.97 30.7 78.84 51.86"/><polygon class="cls-3" points="38.69 30.7 26.28 51.86 13.87 30.7 38.69 30.7"/><path class="cls-2" d="M2.92,30.7H13.87L1.46,51.88H.24A57.7,57.7,0,0,1,2.92,30.7Z"/><polygon class="cls-4" points="64.97 30.7 52.56 51.86 38.69 30.7 64.97 30.7"/><polygon class="cls-2" points="91.24 30.7 78.84 51.86 64.97 30.7 91.24 30.7"/><path class="cls-4" d="M8,21.21C6.49,23,4.75,26.5,2.92,30.7H13.87Z"/><polygon class="cls-2" points="26.28 9.53 14.03 30.7 38.69 30.7 26.28 9.53"/><polygon class="cls-3" points="52.56 9.53 38.85 30.7 64.97 30.7 52.56 9.53"/><path class="cls-3" d="M78.11,11.72l-13,19H91.23C88.95,24,84.44,17.66,78.11,11.72Z"/><path class="cls-3" d="M13.87,30.7,26.33,9.53H18.79C14.35,13,10.51,16.81,8.08,21.21Z"/><polygon class="cls-4" points="52.56 9.53 38.69 30.7 26.28 9.53 52.56 9.53"/><path class="cls-4" d="M58.4,1.5l-5.84,8,23.36.73C72.09,6.36,65.85,3.63,58.4,1.5Z"/><polygon class="cls-2" points="64.97 30.7 52.56 9.53 75.96 9.93 78.11 11.72 64.97 30.7"/><path class="cls-2" d="M26.33,9.53H19a22.71,22.71,0,0,1,4.3-2.92Z"/><path class="cls-4" d="M35,1.5l-8.76,8-3-2.89A43.61,43.61,0,0,1,35,1.5Z"/><path class="cls-2" d="M58.4,1.5l-5.84,8L46,0A43.19,43.19,0,0,1,58.4,1.5Z"/><path class="cls-3" d="M26.33,9.53H52.61L46.53,0A54.91,54.91,0,0,0,35.09,1.5Z"/></g><circle class="cls-5" cx="13.87" cy="30.7" r="1.46"/><circle class="cls-5" cx="38.69" cy="30.7" r="1.46"/><circle class="cls-5" cx="64.97" cy="30.7" r="1.46"/><circle class="cls-5" cx="52.56" cy="10.26" r="1.46"/><circle class="cls-5" cx="26.28" cy="10.26" r="1.46"/><circle class="cls-5" cx="26.28" cy="51.87" r="1.46"/><circle class="cls-5" cx="40.15" cy="73.76" r="1.46"/><circle class="cls-5" cx="52.56" cy="51.87" r="1.46"/><circle class="cls-5" cx="78.84" cy="51.87" r="1.46"/><circle class="cls-5" cx="64.24" cy="73.76" r="1.46"/><circle class="cls-5" cx="14.6" cy="73.76" r="1.46"/><circle class="cls-5" cx="2.19" cy="51.87" r="1.46"/></g></g></g></g></g></svg>