<svg xmlns="http://www.w3.org/2000/svg" viewBox="0 0 112.98 97.98"><title>stormAsset 1</title><g id="Layer_2" data-name="Layer 2"><g id="Layer_1-2" data-name="Layer 1"><g id="icons"><path id="StormCrow" d="M99.92,10.34,113,9.25s0-1.63-13.61-5.44C93.37,1.63,96.11,1.63,89,0,82,0,76,9.25,76,9.25S70.52,20.69,62.31,24.5s-33.2,32.66-33.2,32.66S-3.52,90.37.31,90.91s12-3.26,17.42-8.16C21,80.57,13.92,88.19,15,89.28s7.62-.54,12.52-4.36,16.33-5.44,16.33-5.44h5.45S58,84.92,61.81,92c1.09,2.18-8.17,2.18-8.17,2.18s-3.81,2.18,2.73,1.09c1.63,1.09,2.17,1.63,3.81,1.63h8.13L72.12,98S77,98,79.2,95.8C80.83,97.44,83,98,85.73,97.44s4.9-1.64,6.54-.55-2.18-3.81-2.18-3.81-4.9,2.18-11.43-.54c-2.18-4.9-5.45-3.81-6-13.61C72.66,74,75.92,68,75.92,68S88.45,45.17,89,43s4.9-10.35,5.44-15.79,4.9-12,7.63-12,8.71-.54,9.79-1.63S99.92,10.34,99.92,10.34ZM75.42,94.18c0,1.09-7.08,0-8.71-2.18s-4.36-9.8-4.36-9.8S73.79,89.82,75.42,94.18ZM88.76,9.25a1.91,1.91,0,1,1,1.9-1.92s0,0,0,0A1.91,1.91,0,0,1,88.76,9.25Z"/></g></g></g></svg>