<svg xmlns="http://www.w3.org/2000/svg" viewBox="0 0 133.26 117.07"><defs><style>.cls-1,.cls-2{fill:#fff;}.cls-1{stroke:#000;stroke-miterlimit:10;}</style></defs><title>theatreAsset 1</title><g id="Layer_2" data-name="Layer 2"><g id="Layer_1-2" data-name="Layer 1"><g id="Help_Page" data-name="Help Page"><path class="cls-1" d="M.85,14.65Q37.6,23.19,68.92,2.13C100.24-18.93,68.9,174,.85,14.65Z"/><path d="M56.89,38.85Q88.29,59.79,125,51.13C161.73,42.47,64.51,211.95,56.89,38.85Z"/><path class="cls-2" d="M73.27,93.53q7.53,5.61,15,3.51C95.74,94.94,76.78,118.13,73.27,93.53Z"/><path class="cls-2" d="M80.62,73.57c-3.22-8.82-8.23-10-14.94-4C65.68,69.61,77.83,48.9,80.62,73.57Z"/><path class="cls-2" d="M105.57,78.23C102,68.88,96.79,68.75,90.72,74,90.72,74,103.28,53.51,105.57,78.23Z"/><path d="M55.52,65.64q-9.18-1.94-15.14,3.11C34.42,73.8,42,44.79,55.52,65.64Z"/><path d="M35.46,37c-7.6-6.62-12.37-4.57-15.14,3.08C20.32,40.13,22,16.2,35.46,37Z"/><path d="M60.53,31c-7.6-7-12.35-4.9-15.13,3.1C45.4,34.13,47.06,10.18,60.53,31Z"/></g></g></g></svg>