<svg xmlns="http://www.w3.org/2000/svg" viewBox="0 0 125.63 101.89"><defs><style>.cls-1{fill:#f9d10b;}.cls-2,.cls-3{fill:#fff;stroke-miterlimit:10;}.cls-2{stroke:#000;}.cls-3{stroke:#ea3f4c;stroke-width:1.26px;}.cls-4{fill:#ea3f4c;}</style></defs><title>Asset 1</title><g id="Layer_2" data-name="Layer 2"><g id="Layer_1-2" data-name="Layer 1"><g id="Wreck"><circle class="cls-1" cx="99.17" cy="56.14" r="14.92"/><polygon class="cls-1" points="99.08 29.67 96.28 40.26 102.06 40.26 99.08 29.67"/><polygon class="cls-1" points="85.86 33.27 88.73 43.83 93.73 40.94 85.86 33.27"/><polygon class="cls-1" points="76.2 42.99 83.97 50.7 86.86 45.7 76.2 42.99"/><polygon class="cls-1" points="72.7 56.23 83.29 59.03 83.29 53.25 72.7 56.23"/><polygon class="cls-1" points="76.29 69.45 86.86 66.58 83.97 61.58 76.29 69.45"/><polygon class="cls-1" points="86.02 79.11 93.73 71.33 88.73 68.45 86.02 79.11"/><polygon class="cls-1" points="99.26 82.61 102.06 72.02 96.28 72.02 99.26 82.61"/><polygon class="cls-1" points="112.48 79.01 109.61 68.45 104.61 71.33 112.48 79.01"/><polygon class="cls-1" points="122.13 69.29 114.36 61.58 111.48 66.58 122.13 69.29"/><polygon class="cls-1" points="125.63 56.05 115.05 53.25 115.05 59.03 125.63 56.05"/><polygon class="cls-1" points="122.04 42.83 111.48 45.7 114.36 50.7 122.04 42.83"/><polygon class="cls-1" points="112.32 33.17 104.61 40.94 109.61 43.83 112.32 33.17"/><rect class="cls-2" x="65.51" y="31.99" width="3.15" height="73.09" transform="translate(-24.9 41.41) rotate(-29.18)"/><path class="cls-3" d="M103.48,15.87C95.33-1.26,66.18-4.42,38.37,8.81s-43.75,37.88-35.61,55C14.33,63,24,59,31,50.34c16.86-3.22,31.36-8.88,41.09-19.55C84.65,30.57,95.06,25.48,103.48,15.87Z"/><path class="cls-4" d="M31.06,50.19s-14.49-26-.9-36.94C47.23-.53,73.37,16,72.36,30.86,68.37,40.94,31,55.39,31.06,50.19Z"/></g></g></g></svg>