<svg xmlns="http://www.w3.org/2000/svg" viewBox="0 0 39.76 12.21"><defs><style>.cls-1{fill:#e8183b;}.cls-2{fill:#fff;}</style></defs><title>Asset 9</title><g id="Layer_2" data-name="Layer 2"><g id="candy"><g id="candy-2" data-name="candy"><ellipse class="cls-1" cx="19.57" cy="5.86" rx="10.93" ry="5.16" transform="translate(-0.57 2.43) rotate(-6.99)"/><ellipse class="cls-2" cx="19.56" cy="5.77" rx="10.58" ry="3.47" transform="matrix(0.99, -0.12, 0.12, 0.99, -0.56, 2.42)"/><ellipse class="cls-1" cx="19.56" cy="5.77" rx="10.58" ry="2.58" transform="translate(-0.56 2.42) rotate(-6.99)"/><path class="cls-2" d="M1.18,11.52C-2.66,14.07,9.28,8.88,9,6.88S1.63,4.21.3,4.28,2.65,5.44,1,6.91C.46,7.36.75,8.63,1.33,9,3.14,10.13,1.83,11.09,1.18,11.52Z"/><path class="cls-2" d="M38.86,7.26c4.35,1.54-8.49-.61-8.73-2.6S36.66.27,38,0s-2,1.69,0,2.71c.61.32.63,1.61.16,2.11C36.63,6.38,38.13,7,38.86,7.26Z"/></g></g></g></svg>