<svg xmlns="http://www.w3.org/2000/svg" viewBox="0 0 692.15 805.25"><title>Asset 2</title><g id="Layer_2" data-name="Layer 2"><g id="background"><path id="Front_tree" data-name="Front tree" d="M-265.8,526c2.81.91,5.7,1.66,8.47,2.47l.85.24.18.15.75.55A189,189,0,0,1-237,572.81l.14.47a189.23,189.23,0,0,1,5.06,23.61c-1.15,16.83-3.74,33.63-6.52,50.11-3.33,19.72-6.81,39.41-10.22,59.11-1.1,6.38,1.71,12.93,8.38,14.77a12.94,12.94,0,0,0,9.28-1.27h.11l24.46.19c7.9.06,16.17.83,24-.63,19.16-3.56,19.49-23.83,21.21-39.33a553.86,553.86,0,0,0,2.19-96.1c-2.09-32.74-7.31-65-14.53-97-3.35-14.84-6.75-29.76-7.2-45-.47-15.89,3.31-31.32,4.17-47.11a81.69,81.69,0,0,0-3-27.74c-2.45-8.2-6.2-16-9.72-23.78a161.28,161.28,0,0,1-13.41-48,15.44,15.44,0,0,0-2.45-6.87c.12-.83.27-1.65.47-2.47a17.55,17.55,0,0,1,2.42-5.4l1.21-1.67c3.5-4.34,8.54-7.53,12.6-11.39a34.83,34.83,0,0,0,7.26-9.69c.75-1.5,1.35-3.42,2.9-4.16,2.18-1.05,6.43-.22,8.8-.12,11.17.46,22.23,2.53,33.35,3,8.21.36,16.72-3.8,17.62-12.77a11.35,11.35,0,0,0-.85-5.75,19.4,19.4,0,0,1,5.81-8.73,5.23,5.23,0,0,0,1.56-2.65c6.25-5.51,14.84-9.2,22.58-11.56a78.48,78.48,0,0,1,17.23-3.2,6.19,6.19,0,0,0,.92.22,150.32,150.32,0,0,0,17.52,1.62,4.44,4.44,0,0,0,1.88,1.6A74.3,74.3,0,0,1-32.92,227a6,6,0,0,0,3.83,1.56c3.6,3.2,8.82-1.79,6.6-5.85a5.16,5.16,0,0,0-1.94-4.19c-.7-.62-1.41-1.21-2.12-1.8a5.49,5.49,0,0,0,1.39-3.83c5.16-.33,10.32-.71,15.48-1.07a5.92,5.92,0,0,0,4.18-2,81.82,81.82,0,0,0,69.82-4.05,2.39,2.39,0,0,0,.34-.21l15.53-.21a46.15,46.15,0,0,1,10.59,4.06,48.3,48.3,0,0,1,4.2,2.54c2.54,1.74,3.06,3.93,4.92,6.12a14,14,0,0,0,5.87,3.64c4,1.6,8.24,2.9,12.38,4.28,9.89,5.47,20.47,9.29,30.2,15.18,1.65,1,3.16-1.59,1.51-2.59a128.08,128.08,0,0,0-14.68-8c-4.59-2-9.19-3.78-13.62-6.08a1.47,1.47,0,0,0-.9-.8l-1.45-.49c-5.25-3-10.48-6.11-15.42-9.59q7.75-1.22,15.55-1.85,20.66,1.2,41.36,1a1.54,1.54,0,0,0,.39-.05c3.54.08,7.07.1,10.61,0,1.93,0,1.94-3,0-3-3,0-6,0-9,0a1.33,1.33,0,0,0-1.16-.54c-1.7,0-3.4.06-5.11.08-1.5,0-3,0-4.5-.06a1.41,1.41,0,0,0-1-.41l-13.93-.13a1.37,1.37,0,0,0-1.17-.65c-4.67,0-9.32.22-14,.54-2.48-.06-5-.15-7.39-.17h-.66l-4-.28a1.35,1.35,0,0,0-.83.18,75.72,75.72,0,0,1-10.32-1l0-.06a22.2,22.2,0,0,0-7.52-6c-1.41-.68-12.43-2.88-10.48-5.79a1.28,1.28,0,0,0-.37-1.87l.69-3.05a100.58,100.58,0,0,0,17.43-15A317.33,317.33,0,0,1,133,173.6c12.37,0,24.72,1,37.09.72,17.67-.38,35.93-3.81,49.9-14.95q2.92-1.55,5.82-3.25a1.5,1.5,0,0,0-1.51-2.59l-.18.1a1.42,1.42,0,0,0-2.09,0q-1.9,1.84-3.93,3.46a104.39,104.39,0,0,1-21,9c-9.8,2.81-20,3.4-30.13,3.11-12-.33-23.93-1.73-35.87-2.08l-17.15-1.44a1.28,1.28,0,0,0-1.1.4l-.56-.29c3.09-1.67,6.37-3.06,9.66-4.44l21.75-9.06a1.46,1.46,0,0,0,1.35,0c8.69-4.5,16.66-2.71,25.92-3.14a29.19,29.19,0,0,0,11.14-2.74l.62-.08a1.57,1.57,0,0,0,1.22-.85,34.78,34.78,0,0,0,5-3.32c1.5-1.22-.64-3.33-2.13-2.13a25.47,25.47,0,0,1-5.73,3.52l-6.58.87q-10.08.19-20.15.71a28.93,28.93,0,0,1,5.15-10.26,1.57,1.57,0,0,0,.18-.31,37.76,37.76,0,0,0,2.69-3.49q1.2-1.92,2.21-3.92a1.52,1.52,0,0,0,.34-.7,36.63,36.63,0,0,0,2.5-6.75c.49-1.87-2.41-2.67-2.89-.8a35.26,35.26,0,0,1-2.49,6.61l-1.95,2.21a76.5,76.5,0,0,0-5.34,6.07c-3.12,3.54-6.25,7.08-9.45,10.55-5.49,6-12,8.3-19.51,9.94a1.53,1.53,0,0,0-1.08-.13c-27.69,6.41-44.59,31.82-68.4,45.31a1.45,1.45,0,0,0-.6.7,72.28,72.28,0,0,1-58.5,1.22A4.72,4.72,0,0,0-5.78,201a5.25,5.25,0,0,0-3.9-1.15c-4.19.29-8.39.62-12.61.93l6.4-9.55,21-13.58a5,5,0,0,0,1.3-1.23,20.18,20.18,0,0,0,5.83-4.29,2,2,0,0,0,.22-.31c6.76-4,13.61-8,20.85-10.71,9.61-3.64,20.42-3.89,30.53-5.09a1.41,1.41,0,0,0,.56-.17l4.81-.15c1.93-.05,1.94-3.05,0-3l-4.42.14h0a13.93,13.93,0,0,0,4-1.91c9.59-1.81,16.74-8.53,25.18-13,11.1-5.83,23.92-5.33,36.07-4.79,1.66.07,2.09-2.69.4-3l-.4,0h0a76.66,76.66,0,0,0-53.54,11.92,8.3,8.3,0,0,1,5.6-5.77,1.5,1.5,0,0,0-.8-2.89c-5.79,1.49-8.68,6.38-12.1,10.84a19.17,19.17,0,0,1-5.4,5.07l-.1.06a16.05,16.05,0,0,1-7.16,2.07c-4.46.31-8.89,0-13.34.6-12.89,1.65-24.72,7.18-35.42,14.35a45.42,45.42,0,0,0-5.87,2.44,15.27,15.27,0,0,0-5.71-.08c0-.58,0-1.17,0-1.76a48.89,48.89,0,0,0,1.14-14.66A27.69,27.69,0,0,1,.9,143.69c2.69-4,6.36-5.51,10.68-7.36,4.91-2.1,8.15-5.2,9.9-10.28.63-1.83-2.27-2.62-2.89-.8a12.13,12.13,0,0,1-2.23,4L9.49,131a1.33,1.33,0,0,0-1,1.1c-5.5,2-10.46,5.65-12.73,11.2a15.71,15.71,0,0,0-.6,1.75l-.39-2.51a1.27,1.27,0,0,0-1.33-1.05q-1.05-3.72-2.23-7.39A1.57,1.57,0,0,0-10.27,133l-.43,0c-.19-6.39-2.05-12.65-7.69-16.32a1.51,1.51,0,0,0-2.05.54A13.71,13.71,0,0,0-22.11,126a7.76,7.76,0,0,0,1,3.72A11.88,11.88,0,0,0-20,131.2l.13.23a16.74,16.74,0,0,1,1.44,4.7c.83,3.69,3.16,6.81,4.35,10.46.88,2.72,1.83,5,4.28,6.51A98.71,98.71,0,0,0-13,173.26a33.45,33.45,0,0,0-5.54,5.92q-2.19,3-4.27,6a4.41,4.41,0,0,0-.7,1c-3.46,5-6.78,10.2-10.13,15.32q-3.12.16-6.24.25c-10.22-3.83-21.65-4.09-32.79-3.83a5.66,5.66,0,0,0-4.53,2.22,86.94,86.94,0,0,0-15.29,3.18c-10.08,3.07-20.14,7.95-28.13,14.91-3.6,3.14-5.6,8.59-10.26,10.06a32.37,32.37,0,0,0-7,2.81c-8.64-.55-16.84-4.12-25.18-6.18-10.33-2.55-20.1-2.36-29.84,2.19-9.5,4.43-19.58,13.91-30.78,10.48a5.26,5.26,0,0,0-5.82,1.58q1.14-10.72,2.15-21.44,3-26.26,5.52-52.56c11.44-12.67,27.55-21.45,39.79-33.12,18-17.2,31.8-38.68,51.3-54.38,9.24-7.43,20-13.44,31.54-16.3,11.8-2.91,23.08-1.3,34,3.87s21,10.88,33.11,11.68c11,.71,22.18-2.56,31.6-8.07,15.31-9,25-23.52,30.35-39.79a31.13,31.13,0,0,1,3.8-1.23,4.67,4.67,0,0,0,1.67-.14c1-.26,2-.49,3.06-.7a38.3,38.3,0,0,1,7.42,0A5,5,0,0,0,50,25.59c16.69-.72,34.06,3.39,50.16,5.67a4.74,4.74,0,0,0,4.55-1.92c4.65-1.56,9.31-3.1,14-4.7,1.46-.5,2.88-1,4.24-1.62l.16,0c3.83-.59,7.13-1.76,9.57-4.62a9,9,0,0,0,.84-1.09,1.26,1.26,0,0,0-.12-1.67l2-3.56c.89-1.71-1.65-3.21-2.59-1.51l-.31.53a1.52,1.52,0,0,0-1,.66,28.27,28.27,0,0,1-2.33,2.91c-2.71,2.58-6.29,4-9.94,5.07Q111.47,21.07,103.9,23a4,4,0,0,0-1.35-.43C85.44,20.15,67.24,16,49.6,16.66A6.11,6.11,0,0,0,45.8,15a43.17,43.17,0,0,0-10.62.34c.09-.48.17-1,.24-1.45a40.31,40.31,0,0,0,5.69-7.6c.18-.31.38-.58.58-.87,1.41-.38,2.81-.81,4.2-1.3a5.9,5.9,0,0,0,3.42-2.95l.34-.31a32,32,0,0,0,7-3.74A76.67,76.67,0,0,1,77.39-9.15a137.82,137.82,0,0,1,30.9,3.28,4.21,4.21,0,0,0,.74.18c3,.69,6.08,1.47,9.09,2.38a4.63,4.63,0,0,0,1.69.19A71.64,71.64,0,0,1,132.67-.06a4.14,4.14,0,0,0,2,1c2.41.51,3.59,3.38,5.06,5.17a15.45,15.45,0,0,0,5.94,4.56,25,25,0,0,0,8,1.7c.28,0,1.29.06,2.49.15a17.05,17.05,0,0,0,6,6.42,5.06,5.06,0,0,0,3.53,1.65c.34.12.68.24,1,.34l.13,0c5.51,3.88,10.94,7.92,14.13,14a28.35,28.35,0,0,1,2.31,19.59c-.44,1.87,2.43,2.67,2.89.79.27-1.13.53-2.3.76-3.49a1.23,1.23,0,0,0,.86-1c.29-1.56.56-3.15.76-4.73C197.1,34.5,185,21.8,173.09,17.53c-.28-.28-.56-.56-.83-.86a1.33,1.33,0,0,0-2,0l-.06,0a8.77,8.77,0,0,0,.52-3.75,4.15,4.15,0,0,0,2.95-1.27q16.76,1.51,33.55,1.7a134.41,134.41,0,0,0,16.55-.13c1.91-.1,1.94-3,0-3q-7.76.23-15.49.14A55.6,55.6,0,0,1,196.89,8.5a61.52,61.52,0,0,0-9-1.78,1.54,1.54,0,0,0-1.08-.6L185.89,6a1.54,1.54,0,0,0-1.42-1.37,94.41,94.41,0,0,0-12.12-.4,4.46,4.46,0,0,0-1.81-.34L164.63,4a4.3,4.3,0,0,0-2.07.54,19.79,19.79,0,0,0-5.34-1c-4.73-.24-8.31-.32-11.37-4.16a4.94,4.94,0,0,0,1-.35C154.64-4.85,163-2.33,171.05-5c4-1.3,7.32-3.23,11.61-3.6,1-.09,2-.13,2.94-.14a49.83,49.83,0,0,0,9.08.48,4.12,4.12,0,0,0,3.6-1.78,102.88,102.88,0,0,1,31.31-6A32.61,32.61,0,0,1,244-10.22a1.16,1.16,0,0,0,.85.69,25,25,0,0,1,6.89,9.16,19.06,19.06,0,0,0,3.36,6.74l.69,2.27a1.53,1.53,0,0,0,1.7,1l.07.09a7.87,7.87,0,0,0,4,3.4c.36.37.74.73,1.14,1.07,5.15,4.38,11.49,4.23,17.64,3a1.51,1.51,0,0,0,.8.18,101.65,101.65,0,0,0,24-4,94.84,94.84,0,0,0,10.32-3.27c7-2.65,13.42-6.82,20.65-8.7,8.29-2.17,17-1,25.41-.8a170.68,170.68,0,0,0,46.54-5.42c1.87-.48,1.07-3.37-.8-2.89q-4.87,1.25-9.81,2.2a1.23,1.23,0,0,0-1-.25,307,307,0,0,1-31.79,2q-7.73.06-15.45-.28c-2.7-.12-5.46-.3-8.18-.19a1.26,1.26,0,0,0-1.24-.15l-.81.3a23.11,23.11,0,0,0-4.1.76A33.52,33.52,0,0,0,327.61.05a237.32,237.32,0,0,1-23.75,7.4,104.94,104.94,0,0,1-19.29,3,74.57,74.57,0,0,1-9,0,55.87,55.87,0,0,1-7.4-.68Q266.1,8.42,264,7.08l-.16-.14c-3.8-4.05-5.87-9.42-7.63-14.64,9.21,1.74,16.91-3.2,24.39-8.07,4.62-3,9.36-5.66,14.87-6.61.88-.15,1.77-.26,2.67-.36l14.85.07a1.49,1.49,0,0,0,.91-.28l6.6.42c1.93.13,1.92-2.87,0-3l-21.93-1.41c-8.36-1.74-15.27,2.93-22.12,7.16A48.34,48.34,0,0,1,252-12.16c-8.92-5.44-18-10.49-28.7-10.85-11.26-.38-22.82,1.23-34.1,2.26a19.56,19.56,0,0,1-.3-8.15q2.09-4.19,4.43-8.22a8.36,8.36,0,0,0,2.1-3.6,1.29,1.29,0,0,0,1.05-1c1.71-7.46,5.88-17.31,13.16-21.19a1.21,1.21,0,0,0,1.29.2c10.84-3.92,22.94-1.5,34.13-4.42A67.55,67.55,0,0,0,272-81.5c1.47-1.26-.66-3.37-2.12-2.12s-3.26,2.67-5,3.88a1.31,1.31,0,0,0-1.12.2A60.21,60.21,0,0,1,240.66-70c-8,1.41-16,.21-24.06,1.07-6.24.67-11.72,2.87-15.84,7.73a81.79,81.79,0,0,0-8.41,12.73L181.65-33A3.74,3.74,0,0,0,180-31.34c-2.38,4.64-4.41,10.84-7.75,14.88-1.72,2.08-4.12,1.69-6.56,1.72l-9.81.1a4.14,4.14,0,0,0-3.94,2.57,36.79,36.79,0,0,0-9.65,3.27A4,4,0,0,0,140.36-7l-2.29-.47a10.12,10.12,0,0,0-1-.3,5.76,5.76,0,0,0-.9-.1l-11.79-2.45a3.61,3.61,0,0,0-1.45-1.34,27.14,27.14,0,0,0-12.55-3A147.44,147.44,0,0,0,92-17.53a10.83,10.83,0,0,1,4.32-9,1.24,1.24,0,0,0,.49-.73,180.28,180.28,0,0,1,20.08-11.5,3.83,3.83,0,0,0,2.23-2.72A128.23,128.23,0,0,0,137.83-57a4.77,4.77,0,0,0,.86-1.16,156.73,156.73,0,0,1,27.2-10.26,1.4,1.4,0,0,0,.63.09l18.68-1.22c1.91-.12,1.93-3.12,0-3l-14.28.93a1.52,1.52,0,0,0-1.66-.79c-10.77,1.94-21.57,4.1-31,9.71a4.42,4.42,0,0,0-5.74-1.44,38.46,38.46,0,0,1,3.86-6.19c.8-1-.17-2.07-1.23-2.14a1.62,1.62,0,0,0-2.83.32l-2.81,7.35a40.31,40.31,0,0,0-2,5.26,136.08,136.08,0,0,1-22.59,16.06,14.87,14.87,0,0,0-.26-2.1,20.89,20.89,0,0,0-.23-3v0h0c0-.13,0-.26,0-.4A1.25,1.25,0,0,0,103-50.08c-.17-.31-.33-.62-.52-.92-2.57-4.15-7.24-5.5-10.1-9.27a1.76,1.76,0,0,0-.66-.51A18.17,18.17,0,0,1,89-67.64c-.25-1.83-2.75-1.1-2.94.4-.76,5.83,2.92,9.42,6.84,12.86,3.6,5.05,6.7,10.13,3.82,15.46,0,0,0,.06,0,.09-5.21,2.93-10.8,6.43-14.59,11-1.84,1.4-3.68,2.83-5.48,4.3a4.8,4.8,0,0,0-.83.87c-9.16,1.5-18.4,2.84-27.45,4.85-5.22,1.17-11.46,3.06-15.6,6.89A4.39,4.39,0,0,0,30.6-9.23a65.29,65.29,0,0,1-7.41,3.77,7,7,0,0,0-3.76-2.32,4.54,4.54,0,0,0,.19-2.13,20.93,20.93,0,0,1,2.12-2.3c4.42-4,9.77-6.3,13.68-11C43.3-32.76,45.64-44.93,47.1-56.87A4.65,4.65,0,0,0,47-58.38a37.18,37.18,0,0,1,13.25-8.36,1.54,1.54,0,0,0,1-1.74c1.05-.2,2.07-.38,3.05-.54,1.9-.32,1.09-3.21-.8-2.89-7.92,1.32-17.23,3.79-21.13,10.81a5.5,5.5,0,0,0-1.59.47,109,109,0,0,1-8.18-9.51c-1.13-1.49-3.66-.15-2.59,1.51a66.24,66.24,0,0,0,8.38,10.47,4.79,4.79,0,0,0-.33,1.29c-1.4,11.44-4,24.46-13.7,31.9-4,3.07-8.29,5.16-11.55,9.15-.68.84-1.3,1.71-1.9,2.6L2.69-4.9C-3.93-1.54-7,5.43-4.24,12.73-2.78,16.65-.35,20,.66,24.08A27.39,27.39,0,0,1,1,35.34,25.77,25.77,0,0,1-11.78,53.52a27.39,27.39,0,0,1-22.12,2c-8.43-2.94-15-9.88-22.33-14.7C-69.35,32.23-85.34,28-101,28.09a85.34,85.34,0,0,0-21.91,3,53.44,53.44,0,0,1-28.25-14.26,6.77,6.77,0,0,0-.86-.7,12.26,12.26,0,0,1,1.09-4.76C-146.79,1-138.38-7-128.53-11.87A4.43,4.43,0,0,0-127.06-13a1.51,1.51,0,0,0,.91-.92c3.12-8.61,11.93-11.91,19.57-15.45a35.36,35.36,0,0,0,4.33-2.12,18.19,18.19,0,0,1,7.42.94c1.07.73,2.08,1.42,3,1.93.61.34,1.24.66,1.87,1a22.82,22.82,0,0,0,8.79,5c4.66,3.11,9.46,5.91,15,6.23,1.93.11,1.92-2.89,0-3a21.06,21.06,0,0,1-6.43-1.43,1.17,1.17,0,0,0-.22-.5,36.52,36.52,0,0,0,8-.79,79.65,79.65,0,0,0,14.7-5.06c11.55-4,23.2-9,35.38-5.76a1.5,1.5,0,0,0,.79-2.89c-1-.26-1.91-.46-2.87-.63a1.19,1.19,0,0,0-1-.87c-12.1-2-22.79,3-33.64,7.51-2.86,1-5.71,1.88-8.59,2.6a40.25,40.25,0,0,1-20.79,0,104.58,104.58,0,0,0-9.85-5.8l-.43-.29a1.35,1.35,0,0,0-.49-.19q-3.16-1.6-6.47-3l.24-2.05.24-.13A1.55,1.55,0,0,0-97-40.78c.05-1,.11-2,.16-2.94,3.79-4.66,13-4.29,17.78-7.71C-75.44-54.06-72-57-68.55-60c.45-.14.93-.27,1.44-.38,2-.43,4-.54,6-1a43.21,43.21,0,0,0,13.62-6.25A1.5,1.5,0,0,0-49-70.32a103.8,103.8,0,0,1-13.13,4.71c.08-.09.17-.17.26-.26,1.36-1.41-.67-3.35-2.12-2.12s-3,2.6-4.5,4l-.11.09a2,2,0,0,0-.3.28l-.36.33a10.39,10.39,0,0,0-4.57,1.77c-3.68,2.72-6.47,6.08-10.67,8.2a34.25,34.25,0,0,1-14.58,3.56,1.25,1.25,0,0,0-.87-.11,1.5,1.5,0,0,0-2.34.26,49.53,49.53,0,0,0-4.16,8.38c-2.38,3.16-4.53,6.59-8.06,8.64s-7.17,3.33-10.36,5.86a29.66,29.66,0,0,0-2.63,2.36c0-.24,0-.49,0-.73a1.3,1.3,0,0,0,.48-.82c1.78-8.8-4.06-16.18-6.39-24.13,0-.1,0-.21,0-.32a24.7,24.7,0,0,0,.59-8.92,1.56,1.56,0,0,0-2-1.38,1.54,1.54,0,0,0-2.13.93,17.94,17.94,0,0,0,.06,6.74,21.28,21.28,0,0,0,.23,3.28l0,.11L-144.82-52a1.5,1.5,0,0,0-1.85,1.64,1.58,1.58,0,0,0,1.2,2.43,11.16,11.16,0,0,1,6.55,2.63,14,14,0,0,1,4.09,10.47c-.17,1-.3,1.94-.38,3a1.18,1.18,0,0,0,.17.76.77.77,0,0,0,0,.15,45.25,45.25,0,0,1-3.06,14.11c-10.45,6.56-19.66,17.06-22.53,29a15.54,15.54,0,0,0-.15,6.57,5.34,5.34,0,0,0,1.19,6.55q2,1.88,4.05,3.58a55.47,55.47,0,0,0,12.68,10.61,75.88,75.88,0,0,0-7.53,5.09c-2.43,1.87-3.74,4.77-2.43,7.66-.54.5-1.06,1-1.57,1.53a5.08,5.08,0,0,0-2.67,1.1q-11.14,8.57-22.13,17.34a29.42,29.42,0,0,0-4.83,3c-6.13,4.56-12.12,9.34-18,14.19-4.69,3.86-9.3,7.83-13.85,11.85A40,40,0,0,1-227.16,93a5.51,5.51,0,0,0-6.23-1.29,5.31,5.31,0,0,0-6.05,0c-1.48-1-3-1.93-4.46-2.88a34.26,34.26,0,0,1-13.47-16.09,133.26,133.26,0,0,1,4.13-32.35,15.42,15.42,0,0,0,1.05-3.71c.1-.31.19-.63.29-.94.58-1.85-2.29-2.62-2.9-.8-.15.45-.31.9-.47,1.35Q-257.1,40.9-259,45.5A30.12,30.12,0,0,0-261.45,51c-.05.16-.08.32-.13.48-.13.32-.27.64-.41,1a.57.57,0,0,0-.13.14,15,15,0,0,0-2.39,5.6c-.29.64-.57,1.29-.86,1.93a3.63,3.63,0,0,0-3.06,4.2,42.28,42.28,0,0,0,12.27,26.27c3.69,3.61,9.79,6.34,14.41,10-1.74,5.55.09,13.48,1.6,17.93a7.08,7.08,0,0,0,.68,1.44c-.73.79-1.42,1.49-1.94,2A65.09,65.09,0,0,0-252.77,138a62.49,62.49,0,0,0-5.85,20,90.2,90.2,0,0,0-8.66,14.42,11.44,11.44,0,0,0-2.6,6.78c-2.84,10.05-.91,19.88,2.56,29.43-.64,3.58-1.48,7.18-2.3,10.86-2.55,11.42-4.35,23.14-.6,34.53a70.45,70.45,0,0,0,9.78,18.56,11.75,11.75,0,0,0-.16,6.74c.43,1.71.86,3.42,1.29,5.15a52.84,52.84,0,0,0-2.81,10.93,162.41,162.41,0,0,0-1.72,21.79c-1.77,9.48-3,19.08-2.33,28.61a11.22,11.22,0,0,0,0,11.64c1.34,2.42,2.65,4.85,3.95,7.29q1.06,7.63,2.71,15.11a11.33,11.33,0,0,0-.35,7.7,231.85,231.85,0,0,1,7.56,37.27c.69,6.21,1.14,12.46,1.35,18.71,0,.78,0,1.56.06,2.34q-4.55-3.18-9.15-6.29a10.54,10.54,0,0,0-5.78-1.89m0,0c-6.22-.07-11.7,5.86-12.28,12.25q-1.41,15.69-2.84,31.37l-1.41,15.68c-.45,4.86-1.27,9.87,0,14.69,2.28,8.51,9.09,12,16.5,14.39M50.11-64.73a39.84,39.84,0,0,0-3.2,2.45A15.59,15.59,0,0,1,50.11-64.73ZM-106.46-33.49a5.18,5.18,0,0,1,.93-.49,6.21,6.21,0,0,1-1.23.72ZM-129-22.7v0h0Zm-130.3,78.15.17-.42c-.06.43-.12.85-.17,1.28ZM69.36,200.6a1.09,1.09,0,0,1,.11.1,1.39,1.39,0,0,0-.39.17Zm6.86-.79.17-.38c.24.12.47.25.69.38Zm.92-6.41ZM99.9,210.68l-.21-.16.26,0A.61.61,0,0,1,99.9,210.68ZM118,171.16l1,0-1,0A.14.14,0,0,1,118,171.16ZM80,185.85l-.21-.13,1.31-1.12ZM103.43,217c.6.41,1.21.81,1.82,1.21A9.76,9.76,0,0,1,103.43,217Zm47.07-71.74c.16-.3.34-.58.51-.87a6.15,6.15,0,0,0,.12.83ZM-18,120.77a1.66,1.66,0,0,0-.66-.07c0-.13.09-.27.14-.4C-18.38,120.45-18.21,120.61-18,120.77Zm-.91,4.32c.49,1.28.94,2.58,1.36,3.89a13.63,13.63,0,0,1-1.4-3.56A1.86,1.86,0,0,1-18.95,125.09Zm82.57,27.77.23-.09a.85.85,0,0,0,.24.08Zm9.95-6.79a1.8,1.8,0,0,0,.19.2l-.84.34ZM160.18,13.2c-.07-.09-.13-.19-.21-.28l.18,0Zm20.38-4c.59,0,1.19-.08,1.78-.1,1.17,0,2.33.06,3.49.15a35,35,0,0,1,3.6.52C186.47,9.62,183.52,9.42,180.56,9.2ZM62.48-17.32l0,0-.51.05ZM73-18.18l0,.12-.63,0ZM12.6,38a2.55,2.55,0,0,0,.33.11c-.2.34-.39.68-.59,1C12.43,38.76,12.52,38.39,12.6,38ZM-231.55,327.73c.11-.78.22-1.57.3-2.35a29.68,29.68,0,0,0,2.12,3l-.38-.15A12.17,12.17,0,0,0-231.55,327.73Zm-10.93,205c.93,1.08,1.8,2.21,2.63,3.36.06.66.11,1.31.17,2a27.06,27.06,0,0,0-5.86-5.79c-.35-.25-.72-.5-1.08-.74Zm9,20.93c.28.82.56,1.63.86,2.43-.23-.56-.49-1.11-.74-1.67Zm21.52,80,.15-1.11c.14.32.28.65.43,1ZM-218.4,333.9Zm32.58-96.76a25.77,25.77,0,0,1,9.27-2A70.36,70.36,0,0,1-185.82,237.14ZM-90.71,47.75a2.17,2.17,0,0,0,.07.24l-1.42.1Zm-10.09-7.56-2.41.43a3.94,3.94,0,0,0-.45-.36C-102.71,40.22-101.76,40.2-100.8,40.19ZM-250.12,532.88l.22.15q4.86,8,8.9,16.42c0,1,.05,2,.1,3A190.13,190.13,0,0,0-250.12,532.88ZM-101,49.53c.44-.15.88-.31,1.33-.45,1.59-.3,3.24-.6,4.93-.87a1.12,1.12,0,0,0,.22.16C-96.73,48.65-98.9,49-101,49.53ZM270.8-13.25a24.8,24.8,0,0,1-8.47,2.84,47.61,47.61,0,0,0,8.28-2.76Z" transform="translate(283 84)"/></g></g></svg>