<svg xmlns="http://www.w3.org/2000/svg" viewBox="0 0 504 447.29"><title>Asset 8</title><g id="Layer_2" data-name="Layer 2"><g id="background"><g id="gate"><path d="M27,447.29v-40h9v-35H27v-188h9v-35H27v-50h6v-12H21.59v-2h5.1a2.9,2.9,0,0,0,2.9-2.9V82.2a2.9,2.9,0,0,0-2.9-2.91h-5.1v-2H22c1.33-2.63,3.72-4.53,7.5-5.5-5-5.27-9.06-12.82-12.69-21.32C14,58.58,10.24,66,4.69,72.12c3.77,1.11,6.51,2.7,7.31,5.17h.59v2H7.5A2.91,2.91,0,0,0,4.59,82.2v.19a2.9,2.9,0,0,0,2.91,2.9h5.09v2H0v12H6v348"/><path d="M253,18.29c-4.89-3.78-8.39-9.85-10.56-18.29-1.79,6.75-4.84,13-10.56,18.29,3.88,0,5.86,1.4,6.12,4V53.76a304.5,304.5,0,0,0-70,8.47V28.29c-.35-2.6,1.25-4,5-4-4.89-3.78-8.39-9.85-10.56-18.29-1.79,6.75-4.84,13-10.56,18.29,3.88,0,5.86,1.4,6.12,4V64.72A416.28,416.28,0,0,0,99,85.33c-4.89,2.13-9.56,4.27-14,6.37V53.29c-.35-2.6,1.25-4,5-4C85.11,45.51,81.61,39.44,79.44,31c-1.79,6.75-4.84,13-10.56,18.29,3.88,0,5.86,1.4,6.12,4V96.61a375.33,375.33,0,0,0-37.81,21.68H36v322h8v-45H76v45H86v-45h28v45h10v-45h33v45h10v-45h29v45h10v-45h32v45h10v-418C247.65,19.69,249.25,18.32,253,18.29Zm-177,369H44V224.77l.27.1c.09-.24,8.63-22.2,31.73-46.15Zm3.13-221.41A181.53,181.53,0,0,0,44,209.61V144.3c6,9.73,19,16.49,34,16.49a49.78,49.78,0,0,0,7.6-.58Q82.3,163,79.13,165.88ZM78,153.79c-16.82,0-30.5-9.64-30.5-21.5s13.68-21.5,30.5-21.5,30.5,9.65,30.5,21.5S94.82,153.79,78,153.79Zm36,233.5H86V169.12a189.15,189.15,0,0,1,28-20.64Zm0-246.92a22.32,22.32,0,0,0,1.54-8.08c0-15.71-16.82-28.5-37.5-28.5-.54,0-1.07,0-1.61,0A446.16,446.16,0,0,1,128,81.45c-4.4,4.63-7,10.27-7,16.34,0,12.59,11.08,23.28,26.39,27.05q-3.25,1.18-6.44,2.44A210.3,210.3,0,0,0,114,140.37Zm43,246.92H124V142.82a205.88,205.88,0,0,1,19.55-9c4.38-1.75,8.88-3.35,13.45-4.83Zm2.5-268c-17.37,0-31.5-9.64-31.5-21.5s14.13-21.5,31.5-21.5S191,85.94,191,97.79c0,8.48-7.23,15.83-17.71,19.33q-3,.72-6,1.51A45.46,45.46,0,0,1,159.5,119.29ZM196,120V387.29H167V126c.66-.18,1.32-.38,2-.55a48.29,48.29,0,0,0,5.66-1.43q10.63-2.53,21.83-4.18Zm-4.38-6.56A23.45,23.45,0,0,0,198,97.79c0-13.55-12.85-24.91-30-27.78v-.57A306.13,306.13,0,0,1,225.93,61c-12.41,4.54-21,14.17-21,25.28,0,10.12,7.1,19,17.72,23.93A288.33,288.33,0,0,0,191.62,113.48ZM238,387.29H206V118.58a299.79,299.79,0,0,1,32-1.78ZM238,106c-14.07-1.35-24.94-9.69-24.94-19.75S223.93,67.9,238,66.55Z"/><path d="M477,447.29v-40h-9v-35h9v-188h-9v-35h9v-50h-6v-12h11.41v-2h-5.1a2.9,2.9,0,0,1-2.9-2.9V82.2a2.9,2.9,0,0,1,2.9-2.91h5.1v-2H482c-1.33-2.63-3.72-4.53-7.5-5.5,5-5.27,9.06-12.82,12.69-21.32C490,58.58,493.76,66,499.31,72.12c-3.77,1.11-6.51,2.7-7.31,5.17h-.59v2h5.09a2.91,2.91,0,0,1,2.91,2.91v.19a2.9,2.9,0,0,1-2.91,2.9h-5.09v2H504v12h-6v348"/><path d="M256,22.29v418h10v-45h32v45h10v-45h29v45h10v-45h33v45h10v-45h28v45h10v-45h32v45h8v-322h-1.19A375.33,375.33,0,0,0,429,96.61V53.29c.26-2.6,2.24-4,6.12-4C429.4,44,426.35,37.75,424.56,31c-2.17,8.44-5.67,14.51-10.56,18.29,3.75,0,5.35,1.4,5,4V91.7c-4.42-2.1-9.09-4.24-14-6.37a416.28,416.28,0,0,0-59-20.61V28.29c.26-2.6,2.24-4,6.12-4C346.4,19,343.35,12.75,341.56,6c-2.17,8.44-5.67,14.51-10.56,18.29,3.75,0,5.35,1.4,5,4V62.23a304.5,304.5,0,0,0-70-8.47V22.29c.26-2.6,2.24-4,6.12-4C266.4,13,263.35,6.75,261.56,0c-2.17,8.44-5.67,14.51-10.56,18.29C254.75,18.32,256.35,19.69,256,22.29ZM428,178.72c23.1,23.95,31.64,45.91,31.73,46.15l.27-.1V387.29H428Zm-9.6-18.51a49.78,49.78,0,0,0,7.6.58c15,0,28-6.76,34-16.49v65.31a181.53,181.53,0,0,0-35.13-43.73Q421.71,163,418.4,160.21Zm-22.9-27.92c0-11.85,13.68-21.5,30.5-21.5s30.5,9.65,30.5,21.5-13.68,21.5-30.5,21.5S395.5,144.15,395.5,132.29ZM390,148.48a189.15,189.15,0,0,1,28,20.64V387.29H390Zm-26.95-21.2q-3.18-1.26-6.44-2.44c15.31-3.77,26.39-14.46,26.39-27,0-6.07-2.59-11.71-7-16.34a446.16,446.16,0,0,1,51.6,22.38c-.54,0-1.07,0-1.61,0-20.68,0-37.5,12.79-37.5,28.5a22.32,22.32,0,0,0,1.54,8.08A210.3,210.3,0,0,0,363.05,127.28ZM347,129c4.57,1.48,9.07,3.08,13.45,4.83a205.88,205.88,0,0,1,19.55,9V387.29H347Zm-10.26-10.32q-3-.8-6-1.51C320.23,113.62,313,106.27,313,97.79c0-11.85,14.13-21.5,31.5-21.5S376,85.94,376,97.79s-14.13,21.5-31.5,21.5A45.46,45.46,0,0,1,336.74,118.63Zm-29.21,1.18q11.19,1.65,21.83,4.18a48.29,48.29,0,0,0,5.66,1.43c.66.17,1.32.37,2,.55V387.29H308V120Zm-26.19-9.59c10.62-4.94,17.72-13.81,17.72-23.93,0-11.11-8.58-20.74-21-25.28A306.13,306.13,0,0,1,336,69.44V70c-17.15,2.87-30,14.23-30,27.78a23.45,23.45,0,0,0,6.38,15.69A288.33,288.33,0,0,0,281.34,110.22ZM266,116.8a299.79,299.79,0,0,1,32,1.78V387.29H266Zm0-50.25c14.07,1.35,24.94,9.69,24.94,19.74S280.07,104.69,266,106Z"/><rect x="239" y="223.29" width="25" height="19"/></g></g></g></svg>