<svg xmlns="http://www.w3.org/2000/svg" viewBox="0 0 102.52 125.41"><defs><style>.cls-1{fill:#201237;}.cls-1,.cls-11,.cls-12,.cls-13,.cls-14,.cls-3,.cls-4,.cls-6,.cls-7,.cls-8{stroke:#000;}.cls-1,.cls-10,.cls-11,.cls-12,.cls-13,.cls-14,.cls-3,.cls-4,.cls-6,.cls-7,.cls-8,.cls-9{stroke-miterlimit:10;}.cls-1,.cls-11,.cls-6{stroke-width:0.33px;}.cls-13,.cls-14,.cls-2{fill:#fff;}.cls-3,.cls-4,.cls-6,.cls-7,.cls-8{fill:#12032b;}.cls-3{stroke-width:0.38px;}.cls-4{stroke-width:0.35px;}.cls-5{fill:#24163b;}.cls-7{stroke-width:0.33px;}.cls-8,.cls-9{stroke-width:0.39px;}.cls-10,.cls-9{fill:#211338;stroke:#12032b;}.cls-10{stroke-width:0.36px;}.cls-11{fill:#efe59a;}.cls-12{fill:none;stroke-width:0.37px;}.cls-13{stroke-width:0.31px;}.cls-14{stroke-width:0.74px;}</style></defs><title>Asset 10</title><g id="Layer_2" data-name="Layer 2"><g id="House"><g id="House-2" data-name="House"><rect class="cls-1" x="80.9" y="87.81" width="14.81" height="33.33"/><path class="cls-1" d="M37.79,58.86H16.33c1-9.7,1.31-18.72,0-26H37.79A64.21,64.21,0,0,0,37.79,58.86Z"/><line class="cls-2" x1="42.38" y1="5.6" x2="42.38" y2="0.41"/><rect x="42.01" y="0.41" width="0.74" height="5.18"/><line class="cls-2" x1="72.01" y1="5.6" x2="72.01" y2="0.41"/><rect x="71.64" y="0.41" width="0.74" height="5.18"/><line class="cls-2" x1="26.83" y1="7.82" x2="26.83" y2="2.63"/><rect x="26.46" y="2.63" width="0.74" height="5.18"/><line class="cls-2" x1="93.2" y1="16.63" x2="94.52" y2="10.86"/><rect x="90.89" y="13.37" width="5.93" height="0.74" transform="translate(59.55 102.18) rotate(-77.13)"/><path class="cls-3" d="M26.87,6.76c-4,10.62-8.77,20.16-15.6,27a127,127,0,0,1,31.11,0,57.12,57.12,0,0,1-9-12.4A78.45,78.45,0,0,1,26.87,6.76Z"/><path class="cls-1" d="M91.27,66.33,74.36,59.61c2.68-8.4,4.65-16.32,4.86-23l19,4C95,47.93,91.32,58.32,91.27,66.33Z"/><path class="cls-4" d="M93.41,15.5c-5.51,8.64-11.52,16.19-18.84,21a114.41,114.41,0,0,1,27.51,5.82C97.77,35.86,94.19,23.9,93.41,15.5Z"/><rect class="cls-1" x="10.53" y="87.81" width="2.96" height="26.66"/><rect class="cls-5" x="39.42" y="33" width="40" height="28.14"/><path class="cls-6" d="M101.63,87.81H79.42L74.23,58.92H90.52C91.83,68.42,95.6,78.05,101.63,87.81Z"/><polygon class="cls-1" points="10.53 114.47 7.57 114.47 7.57 116.7 7.57 118.18 3.87 118.18 3.87 121.14 0.17 121.14 0.17 124.84 10.53 124.84 27.57 124.84 27.57 114.47 10.53 114.47"/><path class="cls-7" d="M32.75,87.81c-13.06-.48-32.54.45-31.84,0,0,0,10.46-20.76,11.85-31.11l20.73,2.22Z"/><rect class="cls-5" x="27.2" y="80.77" width="54.07" height="44.44"/><polygon class="cls-8" points="88.67 87.44 20.53 87.44 30.9 58.55 78.3 58.55 88.67 87.44"/><rect class="cls-9" x="44.23" y="121.51" width="20" height="3.7"/><rect class="cls-10" x="45.72" y="117.81" width="17.04" height="3.7"/><rect class="cls-7" x="48.31" y="96.7" width="11.85" height="20.74"/><rect class="cls-11" x="65.34" y="94.48" width="11.11" height="11.11" transform="translate(6.02 -4.01) rotate(3.38)"/><rect class="cls-11" x="32.01" y="94.48" width="11.11" height="11.11" transform="translate(-10.12 4.41) rotate(-5.92)"/><path d="M43.19,100.37l-.08-.73c-1.72.23-3.41.46-5,.64a38.12,38.12,0,0,1-.93-5.8l-1.09.17a38.87,38.87,0,0,1,1.2,5.73,51.94,51.94,0,0,1-5.25.39l.08.74L37.4,101c.2,1.47.38,3,.54,4.62l1.48-.23c-.43-1.54-.82-3-1.15-4.48Z"/><path d="M76.49,100.21l-5-.75.76-4.82-.73-.16-1,4.83-5-.74-.11.73a23.32,23.32,0,0,1,5,.38l-1.21,5.7,1.32.21.9-5.73c1.56.29,3.23.66,4.95,1.08Z"/><path class="cls-6" d="M83.86,35.22H34.23L42.38,4.86c9.47,0,15.87-.13,29.63,0Z"/><path class="cls-11" d="M26.83,39.67h0a3.7,3.7,0,0,1,3.7,3.7v8.15a0,0,0,0,1,0,0H23.13a0,0,0,0,1,0,0V43.37a3.7,3.7,0,0,1,3.7-3.7Z"/><path class="cls-11" d="M88.3,92.25h0A3.7,3.7,0,0,1,92,96v8.15a0,0,0,0,1,0,0H84.6a0,0,0,0,1,0,0V96a3.7,3.7,0,0,1,3.7-3.7Z"/><path class="cls-11" d="M86.08,42.63h0a3.7,3.7,0,0,1,3.7,3.7v8.15a0,0,0,0,1,0,0H82.38a0,0,0,0,1,0,0V46.33a3.7,3.7,0,0,1,3.7-3.7Z" transform="translate(16.47 -21.6) rotate(15.8)"/><polygon points="30.53 45.96 27.2 45.96 27.2 39.67 26.46 39.67 26.46 45.96 23.13 45.96 23.13 46.7 26.46 46.7 26.46 51.45 27.2 51.45 27.2 46.7 30.53 46.7 30.53 45.96"/><polygon points="89.59 49.7 85.94 48.84 87.91 42.74 87.21 42.52 85.22 48.67 82.37 48 82.2 48.72 84.99 49.38 83.51 53.97 84.21 54.2 85.72 49.55 89.42 50.42 89.59 49.7"/><rect x="87.75" y="92.25" width="0.73" height="11.86" transform="translate(-3.02 2.8) rotate(-1.79)"/><rect x="84.6" y="99.01" width="7.41" height="0.74"/><path class="cls-12" d="M42,2.63c3.33-1.48,6.3.74,9.26.74s7.41-1.48,8.89-.74,6.66,0,6.66,0h4.82"/><line class="cls-12" x1="46.83" y1="4.81" x2="45.72" y2="0.04"/><line class="cls-12" x1="49.79" y1="4.81" x2="50.16" y2="1.52"/><line class="cls-12" x1="53.4" y1="4.81" x2="53.12" y2="1.52"/><line class="cls-12" x1="56.36" y1="4.81" x2="56.82" y2="1.52"/><line class="cls-12" x1="59.7" y1="4.81" x2="59.79" y2="1.52"/><line class="cls-12" x1="63.03" y1="4.81" x2="62.75" y2="1.52"/><line class="cls-12" x1="65.44" y1="4.82" x2="65.71" y2="1.52"/><line class="cls-12" x1="68.58" y1="4.81" x2="68.68" y2="1.52"/><polygon class="cls-11" points="50.21 33.99 45.34 42.63 45.34 54.48 54.97 54.48 54.97 42.63 50.21 33.99"/><polygon class="cls-11" points="67.25 33.99 62.38 42.63 62.38 54.48 72.01 54.48 72.01 42.63 67.25 33.99"/><polyline class="cls-13" points="45.34 42.63 50.16 42.63 54.97 42.63"/><polygon points="50.34 48.19 50.16 42.62 49.42 42.64 49.6 48.19 45.34 48.19 45.34 48.92 49.62 48.92 49.79 54.12 50.53 54.1 50.36 48.92 54.97 48.92 54.97 48.19 50.34 48.19"/><line class="cls-14" x1="62.38" y1="48.36" x2="72.01" y2="48"/><polyline class="cls-13" points="62.38 42.63 67.19 42.63 72.01 42.63"/><line class="cls-14" x1="67.56" y1="54.48" x2="66.82" y2="42.63"/><path d="M12,56.7s.74-5.18,0-5.92"/><path class="cls-12" d="M90.52,54.48c-4.44,0-9.62,1.85-11.1,1.3A27.86,27.86,0,0,0,72,54.48c-2.22,0-8.15,1.48-12.59.74s-15.56-.74-16.3,0S32,54.48,32,54.48s-6.66-.74-8.88,0S12,53.74,12,53.74"/><path class="cls-12" d="M90.15,58.55s-.74-5.92,0-5.92"/><line class="cls-12" x1="15.6" y1="56.7" x2="15.35" y2="51.15"/><line class="cls-12" x1="19.66" y1="57.44" x2="19.79" y2="52.63"/><line class="cls-12" x1="23.13" y1="57.81" x2="24.24" y2="52.63"/><line class="cls-12" x1="27.06" y1="58.23" x2="27.2" y2="52.63"/><line class="cls-12" x1="30.16" y1="58.55" x2="30.16" y2="52.63"/><line class="cls-12" x1="33.49" y1="58.92" x2="33.86" y2="54.11"/><line class="cls-12" x1="37.79" y1="58.86" x2="37.57" y2="53.37"/><line class="cls-12" x1="40.78" y1="58.86" x2="41.27" y2="54.11"/><line class="cls-12" x1="44.36" y1="58.55" x2="44.23" y2="54.11"/><line class="cls-12" x1="47.32" y1="58.55" x2="47.2" y2="54.11"/><line class="cls-12" x1="50.16" y1="58.55" x2="51.64" y2="54.11"/><line class="cls-12" x1="53.49" y1="58.86" x2="53.86" y2="54.11"/><line class="cls-12" x1="56.58" y1="58.55" x2="56.82" y2="53.37"/><line class="cls-12" x1="59.42" y1="58.55" x2="60.53" y2="53.37"/><line class="cls-12" x1="63.12" y1="58.23" x2="62.01" y2="54.11"/><line class="cls-12" x1="66.82" y1="58.55" x2="67.19" y2="53.37"/><line class="cls-12" x1="71.51" y1="58.55" x2="70.16" y2="52.63"/><line class="cls-12" x1="74.23" y1="58.92" x2="74.6" y2="52.63"/><line class="cls-12" x1="78.3" y1="58.55" x2="77.56" y2="52.63"/><line class="cls-12" x1="80.9" y1="58.92" x2="80.53" y2="54.11"/><line class="cls-12" x1="82.81" y1="58.86" x2="82.75" y2="54.85"/><line class="cls-12" x1="85.46" y1="58.86" x2="85.71" y2="54.11"/><line class="cls-12" x1="87.56" y1="58.92" x2="87.93" y2="54.11"/></g></g></g></svg>