<svg xmlns="http://www.w3.org/2000/svg" viewBox="0 0 61.03 92.47"><defs><style>.cls-1{fill:#fff;opacity:0.68;}.cls-2{fill:#808083;}</style></defs><title>Asset 6</title><g id="Layer_2" data-name="Layer 2"><g id="Ghosts"><path class="cls-1" d="M59.32,91.74s-36.85-9.73.5-59.35C66,23.5,47,35.31,43.23,18.65s-8.94-31.95-25.81.05c0,0,1.43,5.62-13.37,4.32S20,46.39,17.16,54.9s8.16,29.75,32,37.57Z"/><path class="cls-2" d="M36,26.3c0,2.22-2.48,2.09-5.53,2.09s-7.32-3.45-7.32-5.68,4.26-2.39,7.32-2.39S36,24.07,36,26.3Z"/><path class="cls-2" d="M29.38,13.15a2.09,2.09,0,0,1-4.18,0c0-1.16.94-3.89,2.09-3.89S29.38,12,29.38,13.15Z"/><path class="cls-2" d="M38.94,14.34c0,1.49.7,3.29-.29,3.29s-3.29-1.8-3.29-3.29.8-2.69,1.79-2.69S38.94,12.86,38.94,14.34Z"/></g></g></svg>