<svg xmlns="http://www.w3.org/2000/svg" viewBox="0 0 410 410"><defs><style>.cls-1{fill:#fff;}.cls-2{fill:#d4d1da;}</style></defs><title>Asset 24</title><g id="Layer_2" data-name="Layer 2"><g id="background"><g id="Moon"><circle class="cls-1" cx="205" cy="205" r="205"/><path class="cls-2" d="M86,155.5a34.49,34.49,0,0,1,41.15-33.85,34.5,34.5,0,1,0-28.3,60.7A34.43,34.43,0,0,1,86,155.5Z"/><path class="cls-2" d="M349.94,175.13q0-.31,0-.63C350,174.71,350,174.92,349.94,175.13Z"/><path class="cls-2" d="M330,194a20,20,0,1,1,20-20.17c0-.11,0-.22,0-.33a25.52,25.52,0,1,0-.41,4.54A20,20,0,0,1,330,194Z"/><path class="cls-2" d="M349.6,178c.07-.39.13-.77.18-1.16C349.72,177.2,349.68,177.59,349.6,178Z"/><path class="cls-2" d="M238.85,49.57c-17.06-1.64-29.94-12.77-28.78-24.86a17.72,17.72,0,0,1,6.28-11.59c-11.9,2.65-20.39,9.05-21.18,17.25C194,42.47,210,53.9,230.9,55.9s38.77-6.18,39.93-18.27a13.52,13.52,0,0,0,0-2.7C267,44.66,253.79,51,238.85,49.57Z"/><circle class="cls-2" cx="198" cy="119" r="5"/><circle class="cls-2" cx="214.5" cy="108.5" r="10.5"/><path class="cls-2" d="M103.18,303.22c-15.71-14.74-37.94-16.56-49.66-4.07-10.85,11.57-8.86,31.36,4,45.93-9.21-12.16-10.78-26.81-2.94-35.17,9.19-9.79,27.81-7.25,41.6,5.69s17.52,31.36,8.33,41.15c-.29.31-.58.6-.89.88a25.13,25.13,0,0,0,6.8-5.12C122.12,340,118.89,318,103.18,303.22Z"/><path class="cls-2" d="M364,268a14,14,0,1,0,14,14A14,14,0,0,0,364,268Zm2.5,25a9.5,9.5,0,1,1,9.5-9.5A9.5,9.5,0,0,1,366.5,293Z"/><path class="cls-2" d="M325,319a19,19,0,0,1,19-19,18.79,18.79,0,0,1,8,1.79,19,19,0,1,0-24,27.42A18.87,18.87,0,0,1,325,319Z"/></g></g></g></svg>