<svg xmlns="http://www.w3.org/2000/svg" viewBox="0 0 87.23 125.62"><defs><style>.cls-1,.cls-2{fill:#b56321;}.cls-1,.cls-7{stroke:#fff;stroke-width:0.55px;}.cls-1,.cls-4,.cls-7{stroke-miterlimit:10;}.cls-3{fill:#fff;}.cls-4,.cls-7{fill:none;}.cls-4{stroke:#231f20;stroke-width:1.65px;}.cls-5{fill:#f2a72f;}.cls-6{fill:#171717;}</style></defs><title>Asset 5</title><g id="Layer_2" data-name="Layer 2"><g id="Owl"><path d="M15.24,105.88c-4.39,4.93-8.23,12.61-11.52,0S.43,73,11.4,55.41C5.92,49.92,7,28.53,8.66,28.53c-2.74-1.1-11-13.17-4.39-11C1,14.81-1.22,7.13,2.62,7.68.43,5.49-.67,0,.43,0s10.42,1.1,19.2,13.17c0,0,20.85-17.56,48.82,0C68.45,9.33,81.07,0,86.56,0c2.19,0-1.65,7.68-1.65,7.68s4.94.55-1.1,9.87c3.3,0,1.1,3.84-4.38,10.43,2.19,6.58-1.65,25.78-2.2,26.88s18.1,34.56,3.84,56.5c0,0-.55,4.39-8.78-4.94.55,2.75-18.1,32.92-51,8.78C19.08,114.65,15.24,105.88,15.24,105.88Z"/><ellipse class="cls-1" cx="24.02" cy="120.14" rx="3.02" ry="4.11"/><ellipse class="cls-1" cx="35.54" cy="120.14" rx="3.02" ry="4.11"/><ellipse class="cls-1" cx="50.9" cy="120.14" rx="3.02" ry="4.11"/><ellipse class="cls-1" cx="61.87" cy="120.14" rx="3.02" ry="4.11"/><ellipse class="cls-1" cx="30.05" cy="120.14" rx="4.11" ry="5.21"/><ellipse class="cls-1" cx="56.39" cy="120.14" rx="4.11" ry="5.21"/><circle class="cls-2" cx="26.76" cy="35.11" r="13.17"/><circle class="cls-2" cx="60.77" cy="35.11" r="13.17"/><circle class="cls-3" cx="27.31" cy="35.11" r="12.07"/><circle class="cls-3" cx="60.23" cy="35.11" r="12.07"/><circle cx="26.76" cy="35.11" r="4.39"/><circle cx="60.23" cy="35.11" r="4.39"/><line class="cls-4" x1="30.05" y1="125.62" x2="30.05" y2="122.88"/><line class="cls-4" x1="35.81" y1="124.53" x2="35.81" y2="121.78"/><line class="cls-4" x1="23.75" y1="124.53" x2="23.75" y2="121.78"/><line class="cls-4" x1="56.66" y1="125.62" x2="56.66" y2="122.88"/><line class="cls-4" x1="62.15" y1="124.53" x2="62.15" y2="121.78"/><line class="cls-4" x1="50.63" y1="124.53" x2="50.63" y2="121.78"/><path class="cls-5" d="M43.79,44.46h0a3.81,3.81,0,0,1,3.27,5.73l-2.29,3.93a1.19,1.19,0,0,1-2.06,0l-2.25-3.94A3.82,3.82,0,0,1,43.79,44.46Z"/><path class="cls-6" d="M66.81,87.5c0,14.39-10.32,26.06-23,26.06s-23-11.67-23-26.06c0-9-3.06-32.25,3.84-28.8,6.58,3.29,33.41,2.4,40-.55C69.55,56,66.81,78.5,66.81,87.5Z"/><path class="cls-2" d="M44.87,37.85c4.38-4.39,10.42-21.94,31.26-22.49A5.66,5.66,0,0,0,75,20.3s-11-7.68-26.88,15.36Z"/><path class="cls-2" d="M43.22,38.4C38.83,34,32.8,16.46,12,15.91a5.69,5.69,0,0,1,1.1,4.94s11-7.68,26.88,15.36Z"/><path class="cls-7" d="M26.76,69.67c0,5.49,9.33,4.39,8.78,0"/><path class="cls-7" d="M54.19,68c0,5.49,9.33,4.39,8.78,0"/><path class="cls-7" d="M40.48,79.54c0,5.49,9.32,4.39,8.77,0"/><path class="cls-7" d="M52,89.42c0,5.48,9.32,4.39,8.77,0"/><path class="cls-7" d="M39.38,102.58c0,5.49,9.33,4.39,8.78,0"/><path class="cls-7" d="M28.41,91.06c0,5.49,9.32,4.39,8.78,0"/></g></g></svg>