<svg xmlns="http://www.w3.org/2000/svg" viewBox="0 0 163 134.34"><defs><style>.cls-1{fill:#b56321;}.cls-2{fill:#463121;stroke:#432e1e;stroke-miterlimit:10;}.cls-3{fill:#8f5624;}.cls-4{fill:#443223;}</style></defs><title>Asset 23</title><g id="Layer_2" data-name="Layer 2"><g id="pumpkin"><g id="pumpkin-2" data-name="pumpkin"><path class="cls-1" d="M112.17,23.29A48.74,48.74,0,0,0,81.5,34.23,48.74,48.74,0,0,0,50.83,23.29C22.76,23.29,0,47.47,0,77.29s22.76,54,50.83,54c11.52,0,22.64,6.86,31.17,0,8.53,6.86,18.65,0,30.17,0,28.07,0,50.83-24.18,50.83-54S140.24,23.29,112.17,23.29Z"/><path class="cls-2" d="M70.4,27.45S70-7.71,88,2.29l6,6s-10-6-10,0,4.91,21,4.91,21l-6.91,5Z"/><path class="cls-3" d="M19,77.29c0-23.2,13.26-42.39,30.5-45.54a27.6,27.6,0,0,0-5-.46C24.89,31.29,9,51.88,9,77.29s15.89,46,35.5,46a27.6,27.6,0,0,0,5-.46C32.26,119.68,19,100.49,19,77.29Z"/><path class="cls-3" d="M140.5,79.29c0-23.2-13.26-42.39-30.5-45.54a27.6,27.6,0,0,1,5-.46c19.61,0,35.5,20.59,35.5,46s-15.89,46-35.5,46a27.6,27.6,0,0,1-5-.46C127.24,121.68,140.5,102.49,140.5,79.29Z"/><path class="cls-3" d="M49,80.29c0-15,5-28.3,12.71-36.69C51.09,51.15,44,64.76,44,80.29S51.09,109.43,61.71,117C54,108.59,49,95.28,49,80.29Z"/><path class="cls-3" d="M100.29,43.6C108,52,113,65.3,113,80.29s-5,28.3-12.71,36.69C110.91,109.43,118,95.82,118,80.29S110.91,51.15,100.29,43.6Z"/><path class="cls-4" d="M18,87.29H41v12H51.86l.64-6H71v9H87v-8h18v8h13l-.49-15H140s-4,37-55.46,36S17,97.29,18,87.29Z"/><polygon class="cls-4" points="52.5 44.79 41.24 64.29 63.76 64.29 52.5 44.79"/><polygon class="cls-4" points="80.52 71.29 71.28 87.29 89.76 87.29 80.52 71.29"/><polygon class="cls-4" points="105.5 44.79 94.24 64.29 116.76 64.29 105.5 44.79"/></g></g></g></svg>